<?xml version="1.0" encoding="UTF-8" standalone="no"?>
<!-- Created with Inkscape (http://www.inkscape.org/) -->

<svg
   version="1.1"
   id="svg1"
   width="114"
   height="114"
   viewBox="0 0 114 114"
   sodipodi:docname="block.svg"
   inkscape:version="1.4.2 (f4327f4, 2025-05-13)"
   inkscape:export-filename="block.png"
   inkscape:export-xdpi="200"
   inkscape:export-ydpi="200"
   xmlns:inkscape="http://www.inkscape.org/namespaces/inkscape"
   xmlns:sodipodi="http://sodipodi.sourceforge.net/DTD/sodipodi-0.dtd"
   xmlns="http://www.w3.org/2000/svg"
   xmlns:svg="http://www.w3.org/2000/svg">
  <defs
     id="defs1" />
  <sodipodi:namedview
     id="namedview1"
     pagecolor="#ffffff"
     bordercolor="#000000"
     borderopacity="0.25"
     inkscape:showpageshadow="2"
     inkscape:pageopacity="0.0"
     inkscape:pagecheckerboard="0"
     inkscape:deskcolor="#d1d1d1"
     inkscape:zoom="4.7946802"
     inkscape:cx="13.869538"
     inkscape:cy="54.956742"
     inkscape:window-width="1920"
     inkscape:window-height="991"
     inkscape:window-x="-9"
     inkscape:window-y="-9"
     inkscape:window-maximized="1"
     inkscape:current-layer="g1" />
  <g
     inkscape:groupmode="layer"
     inkscape:label="Image"
     id="g1">
    <path
       style="fill:#000000"
       d="M 36.517735,103.15735 C 31.483926,99.954773 10.211178,77.653581 9.6523389,74.993136 c -0.2873,-1.367736 -0.715169,-9.507234 -0.95082,-18.087773 -0.30895,-11.249449 -0.07413,-16.409596 0.841881,-18.5 C 10.242086,36.810902 16.75079,29.692281 23.927625,22.506344 28.25547,18.173011 34.989572,10.575063 36.542466,9.8750372 39.77472,8.9300272 48.394259,9.2202881 54.696922,9.1899248 c 9.803484,-0.047229 18.813746,-0.0257 20.229488,0.329634 2.834226,0.7113452 27.84802,24.5201302 29.37625,28.7381722 1.3792,3.806704 0.86085,32.912019 0.20779,37.305905 -0.25976,1.747689 -7.190042,8.792708 -14.402772,15.942708 L 76.993625,104.50633 58.25568,104.78617 c -17.009393,0.25402 -19.014691,0.10376 -21.737945,-1.62882 z M 77.440772,92.085161 81.269705,88.163978 76.987183,83.085161 72.704662,78.006344 H 56.954317 41.203972 l -4.236936,5.060555 -4.236936,5.060554 3.846765,3.939446 3.846766,3.939448 H 57.017735 73.611839 Z M 30.924617,76.117564 35.017735,71.228783 V 56.325772 41.42276 l -4.5,-4.416416 -4.5,-4.416416 -4.605644,4.458208 -4.605643,4.458208 0.246429,15.791436 0.24643,15.582871 4.479291,4.375693 c 2.057493,2.009907 3.961803,3.75 4.348966,3.75 0.387164,0 2.545838,-2.199951 4.797053,-4.88878 z m 62.042424,0.440433 3.687887,-3.979076 -4.59e-4,-16.270924 -0.104742,-15.280242 -4.539102,-4.493035 -3.96555,-3.971624 -4.51367,4.429832 -4.51367,4.429832 0.0065,15.041792 0.0065,15.041792 4.07135,4.75 c 2.239242,2.6125 4.392643,4.75 4.785336,4.75 0.392692,0 2.678561,-2.001756 5.079708,-4.448347 z M 70.017735,57.006344 v -12 h -13 -13 v 12 12 h 13 13 z m 6.997363,-26.497313 4.413779,-4.497314 -3.908519,-4.002686 -3.908519,-4.002687 H 57.017735 40.423631 l -3.908519,4.002687 -3.908519,4.002686 4.413779,4.497314 4.413779,4.497313 h 15.583584 15.583584 z"
       id="path1"
       sodipodi:nodetypes="ssssscssssscsscccccccccccccscccccccccsssccccccccccsscccccccccccccccccccccccc" />
    <path
       d="m 88.044922,32.5625 3.964844,3.972656 4.539062,4.492188 0.105469,15.28125 v 16.269531 l -3.6875,3.980469 c -2.401147,2.446591 -4.687386,4.447265 -5.080078,4.447265 -0.392693,0 -2.545914,-2.1375 -4.785157,-4.75 l -4.070312,-4.75 -0.0078,-15.041015 -0.0059,-15.042969 4.513672,-4.429688 z"
       style="fill:#d8292f;fill-opacity:1"
       id="path7" />
    <path
       d="m 26.017578,32.589844 -4.605469,4.458984 -4.605468,4.457031 0.246093,15.791016 0.246094,15.583984 4.480469,4.375 c 2.057493,2.009907 3.960493,3.75 4.347656,3.75 0.387164,0 2.54566,-2.199843 4.796875,-4.888672 l 4.09375,-4.888671 V 56.326172 41.421875 l -4.5,-4.416016 z"
       style="fill:#d8292f;fill-opacity:1"
       id="path6" />
    <path
       d="m 41.203702,78.005377 h 15.75 15.75 l 4.283203,5.080078 4.283203,5.078125 -3.830078,3.921875 -3.828125,3.919922 h -16.59375 -16.59375 l -3.847656,-3.939453 -3.845703,-3.9375 4.236328,-5.0625 z"
       style="fill:#d8292f;fill-opacity:1"
       id="path5" />
    <path
       d="m 40.424405,18.005377 -3.910156,4.003907 -3.908203,4.001953 4.414062,4.498047 4.414063,4.496093 H 57.018155 72.60214 l 4.412109,-4.496093 4.414063,-4.498047 -3.908204,-4.001953 -3.908203,-4.003907 h -16.59375 z"
       style="fill:#d8292f;fill-opacity:1"
       id="path4" />
    <path
       d="m 44.018155,45.005377 v 12 12 h 13 13 v -12 -12 h -13 z"
       style="fill:#d8292f;fill-opacity:1"
       id="path2" />
  </g>
</svg>
