<?xml version="1.0" encoding="UTF-8" standalone="no"?>
<!-- Created with Inkscape (http://www.inkscape.org/) -->

<svg
   width="100"
   height="100"
   viewBox="0 0 100 100"
   version="1.1"
   id="svg1"
   inkscape:version="1.4.2 (f4327f4, 2025-05-13)"
   sodipodi:docname="blue_plus_multipage.svg"
   inkscape:export-filename="blueminus.png"
   inkscape:export-xdpi="96"
   inkscape:export-ydpi="96"
   inkscape:export-batch-path="C:\Users\danie\Documents\Code\scorecalculatorweb\images"
   inkscape:export-batch-name="blue_plus"
   xmlns:inkscape="http://www.inkscape.org/namespaces/inkscape"
   xmlns:sodipodi="http://sodipodi.sourceforge.net/DTD/sodipodi-0.dtd"
   xmlns="http://www.w3.org/2000/svg"
   xmlns:svg="http://www.w3.org/2000/svg">
  <sodipodi:namedview
     id="namedview1"
     pagecolor="#ffffff"
     bordercolor="#000000"
     borderopacity="0.25"
     inkscape:showpageshadow="2"
     inkscape:pageopacity="0.0"
     inkscape:pagecheckerboard="0"
     inkscape:deskcolor="#d1d1d1"
     inkscape:document-units="px"
     inkscape:zoom="2.8284271"
     inkscape:cx="214.25336"
     inkscape:cy="43.663844"
     inkscape:window-width="1920"
     inkscape:window-height="991"
     inkscape:window-x="2391"
     inkscape:window-y="-9"
     inkscape:window-maximized="1"
     inkscape:current-layer="layer1"
     showgrid="false">
    <inkscape:grid
       id="grid6"
       units="px"
       originx="0"
       originy="0"
       spacingx="1"
       spacingy="1"
       empcolor="#0099e5"
       empopacity="0.30196078"
       color="#0099e5"
       opacity="0.14901961"
       empspacing="5"
       enabled="true"
       visible="false" />
    <inkscape:page
       x="0"
       y="0"
       width="100"
       height="100"
       id="page10"
       margin="0"
       bleed="0"
       inkscape:label="idle" />
    <inkscape:page
       x="110"
       y="0"
       width="100"
       height="100"
       id="page12"
       margin="0"
       bleed="0"
       inkscape:label="hover" />
    <inkscape:page
       x="220"
       y="0"
       width="100"
       height="100"
       id="page11"
       margin="0"
       bleed="0"
       inkscape:label="click" />
    <inkscape:page
       x="330"
       y="0"
       width="100"
       height="100"
       id="page1"
       margin="0"
       bleed="0"
       inkscape:label="inactive" />
  </sodipodi:namedview>
  <defs
     id="defs1" />
  <g
     inkscape:label="Layer 1"
     inkscape:groupmode="layer"
     id="layer1">
    <path
       id="rect1-9"
       style="fill:#00a6ff;fill-opacity:1;stroke:#000000;stroke-width:9.30462;stroke-linecap:butt;stroke-linejoin:miter;stroke-dasharray:none;stroke-opacity:1;paint-order:normal"
       d="m 125.23937,4.8079253 c -4.42294,0.145549 -8.54977,3.240936 -9.91901,7.4466827 -0.92108,2.594459 -0.48942,5.383677 -0.58948,8.074944 0.009,21.480576 -0.0175,42.961642 0.0131,64.441913 0.14555,4.419917 3.24441,8.542354 7.45206,9.91185 2.56507,0.912064 5.32329,0.490539 7.98476,0.587184 21.54247,-0.009 43.08539,0.01749 64.62758,-0.01309 4.44074,-0.163779 8.56733,-3.301831 9.90647,-7.535743 0.87419,-2.539716 0.46038,-5.25922 0.55701,-7.888076 -0.009,-21.526924 0.0175,-43.054299 -0.0131,-64.580946 -0.16346,-4.404698 -3.25633,-8.5034527 -7.45018,-9.8687597 -2.59634,-0.920418 -5.38757,-0.489068 -8.08078,-0.589056 -21.49608,0.0088 -42.99266,-0.01751 -64.48843,0.01312 z" />
    <path
       id="rect1"
       style="fill:#0066ff;fill-opacity:1;stroke:#000000;stroke-width:9.30462;stroke-linecap:butt;stroke-linejoin:miter;stroke-dasharray:none;stroke-opacity:1;paint-order:normal"
       d="m 15.239309,4.8079251 c -4.422937,0.1455487 -8.5497652,3.2409363 -9.919011,7.4466829 -0.9210807,2.594459 -0.4894163,5.383677 -0.5894796,8.074944 0.009,21.480576 -0.017501,42.961642 0.0131,64.441913 0.1455549,4.419917 3.2444083,8.542354 7.4520596,9.91185 2.565075,0.912064 5.323287,0.490539 7.984766,0.587184 21.542469,-0.009 43.085388,0.01749 64.627578,-0.01309 4.440738,-0.163779 8.567326,-3.301831 9.90647,-7.535743 0.874189,-2.539716 0.460376,-5.25922 0.557009,-7.888076 -0.009,-21.526924 0.0175,-43.054299 -0.0131,-64.580946 C 95.095235,10.847946 92.002372,6.7491907 87.808522,5.3838843 85.212185,4.4634656 82.420952,4.8948164 79.727742,4.7948279 58.231664,4.8036179 36.735077,4.7773199 15.239309,4.8079489 Z" />
    <path
       style="fill:#000000;fill-opacity:1;stroke:#000000;stroke-width:10.0004;stroke-linecap:butt;stroke-linejoin:miter;stroke-dasharray:none;stroke-opacity:1;paint-order:normal"
       d="M 25,50 H 75"
       id="path5"
       sodipodi:nodetypes="cc" />
    <path
       style="fill:#000000;fill-opacity:1;stroke:#000000;stroke-width:10.0004;stroke-linecap:butt;stroke-linejoin:miter;stroke-dasharray:none;stroke-opacity:1;paint-order:normal"
       d="M 50,25 50,75"
       id="path5-6"
       sodipodi:nodetypes="cc" />
    <path
       style="fill:#000000;fill-opacity:1;stroke:#000000;stroke-width:10.0004;stroke-linecap:butt;stroke-linejoin:miter;stroke-dasharray:none;stroke-opacity:1;paint-order:normal"
       d="M 160,25 V 75"
       id="path5-6-5"
       sodipodi:nodetypes="cc" />
    <path
       style="fill:#000000;fill-opacity:1;stroke:#000000;stroke-width:10.0004;stroke-linecap:butt;stroke-linejoin:miter;stroke-dasharray:none;stroke-opacity:1;paint-order:normal"
       d="m 135,50 h 50"
       id="path5-2"
       sodipodi:nodetypes="cc" />
    <path
       id="rect1-9-4"
       style="fill:#00a5ff;fill-opacity:1;stroke:#000000;stroke-width:9.30462;stroke-linecap:butt;stroke-linejoin:miter;stroke-dasharray:none;stroke-opacity:1;paint-order:normal"
       d="m 235.23937,4.8079253 c -4.42294,0.145549 -8.54977,3.240936 -9.91901,7.4466827 -0.92108,2.594459 -0.48942,5.383677 -0.58948,8.074944 0.009,21.480576 -0.0175,42.961642 0.0131,64.441913 0.14555,4.419917 3.24441,8.542354 7.45206,9.91185 2.56507,0.912064 5.32329,0.490539 7.98476,0.587184 21.54247,-0.009 43.08539,0.01749 64.62758,-0.01309 4.44074,-0.163779 8.56733,-3.301831 9.90647,-7.535743 0.87419,-2.539716 0.46038,-5.25922 0.55701,-7.888076 -0.009,-21.526924 0.0175,-43.054299 -0.0131,-64.580946 -0.16346,-4.404698 -3.25633,-8.5034524 -7.45018,-9.8687594 -2.59634,-0.9204183 -5.38757,-0.4890683 -8.08078,-0.5890563 -21.49608,0.0088 -42.99266,-0.01751 -64.48843,0.01312 z" />
    <path
       style="fill:#000000;fill-opacity:1;stroke:#ffffff;stroke-width:10.0004;stroke-linecap:butt;stroke-linejoin:miter;stroke-dasharray:none;stroke-opacity:1;paint-order:normal"
       d="M 270,25 V 75"
       id="path5-6-5-3"
       sodipodi:nodetypes="cc" />
    <path
       style="fill:#000000;fill-opacity:1;stroke:#ffffff;stroke-width:10.0004;stroke-linecap:butt;stroke-linejoin:miter;stroke-dasharray:none;stroke-opacity:1;paint-order:normal"
       d="m 245,50 h 50"
       id="path5-2-1"
       sodipodi:nodetypes="cc" />
    <path
       id="rect1-9-3"
       style="fill:#a9ccff;fill-opacity:1;stroke:#808080;stroke-width:9.30462;stroke-linecap:butt;stroke-linejoin:miter;stroke-dasharray:none;stroke-opacity:1;paint-order:normal"
       d="m 345.23937,4.8079253 c -4.42294,0.145549 -8.54977,3.240936 -9.91901,7.4466827 -0.92108,2.594459 -0.48942,5.383677 -0.58948,8.074944 0.009,21.480576 -0.0175,42.961642 0.0131,64.441913 0.14555,4.419917 3.24441,8.542354 7.45206,9.91185 2.56507,0.912064 5.32329,0.490539 7.98476,0.587184 21.54247,-0.009 43.08539,0.01749 64.62758,-0.01309 4.44074,-0.163779 8.56733,-3.301831 9.90647,-7.535743 0.87419,-2.539716 0.46038,-5.25922 0.55701,-7.888076 -0.009,-21.526924 0.0175,-43.054299 -0.0131,-64.580946 -0.16346,-4.404698 -3.25633,-8.5034527 -7.45018,-9.8687597 -2.59634,-0.920418 -5.38757,-0.489068 -8.08078,-0.589056 -21.49608,0.0088 -42.99266,-0.01751 -64.48843,0.01312 z" />
    <path
       style="fill:#000000;fill-opacity:1;stroke:#808080;stroke-width:10.0004;stroke-linecap:butt;stroke-linejoin:miter;stroke-dasharray:none;stroke-opacity:1;paint-order:normal"
       d="M 380,25 V 75"
       id="path5-6-5-4"
       sodipodi:nodetypes="cc" />
    <path
       style="fill:#000000;fill-opacity:1;stroke:#808080;stroke-width:10.0004;stroke-linecap:butt;stroke-linejoin:miter;stroke-dasharray:none;stroke-opacity:1;paint-order:normal"
       d="m 355,50 h 50"
       id="path5-2-11"
       sodipodi:nodetypes="cc" />
  </g>
</svg>
