<?xml version="1.0" encoding="UTF-8" standalone="no"?>
<!-- Created with Inkscape (http://www.inkscape.org/) -->

<svg
   version="1.1"
   id="svg1"
   width="100"
   height="300"
   viewBox="0 0 100 300"
   sodipodi:docname="loader.svg"
   inkscape:version="1.4.2 (f4327f4, 2025-05-13)"
   inkscape:export-filename="loader.png"
   inkscape:export-xdpi="200"
   inkscape:export-ydpi="200"
   xmlns:inkscape="http://www.inkscape.org/namespaces/inkscape"
   xmlns:sodipodi="http://sodipodi.sourceforge.net/DTD/sodipodi-0.dtd"
   xmlns="http://www.w3.org/2000/svg"
   xmlns:svg="http://www.w3.org/2000/svg">
  <defs
     id="defs1" />
  <sodipodi:namedview
     id="namedview1"
     pagecolor="#ffffff"
     bordercolor="#000000"
     borderopacity="0.25"
     inkscape:showpageshadow="2"
     inkscape:pageopacity="0.0"
     inkscape:pagecheckerboard="0"
     inkscape:deskcolor="#d1d1d1"
     inkscape:zoom="1.7862534"
     inkscape:cx="218.614"
     inkscape:cy="126.80172"
     inkscape:window-width="1920"
     inkscape:window-height="991"
     inkscape:window-x="-9"
     inkscape:window-y="-9"
     inkscape:window-maximized="1"
     inkscape:current-layer="g1">
    <inkscape:page
       x="0"
       y="0"
       width="100"
       height="300"
       id="page2"
       margin="0"
       bleed="0" />
  </sodipodi:namedview>
  <g
     inkscape:groupmode="layer"
     inkscape:label="Image"
     id="g1"
     transform="translate(-142)">
    <path
       style="fill:#000000"
       d="m 187.21787,268.12297 c -9.30434,-1.89563 -17.19642,-7.23741 -19.51875,-13.21133 -0.69587,-1.79003 -2.43882,-5.01575 -3.87323,-7.16826 l -2.21216,-1.34056 0.22597,-81.68677 0.12053,-63.54199 -0.072,-15.31791 c -0.0144,-3.068285 -1.10387,-3.05929 -2.14504,-6.378927 -0.8906,-2.839551 -0.19065,-4.754295 -0.36977,-6.942225 -0.1237,-1.510904 -1.5547,-2.92817 -1.56469,-5.664839 -0.008,-2.248485 -0.55895,-2.352426 -1.86555,-4.476723 -0.82316,-1.338302 -2.32967,-4.122104 -2.66227,-6.854741 l -0.99908,-8.208225 4.31931,-2.749874 8.4991,-4.770608 17.31644,-8.829383 13.32837,1.708412 17.5271,2.96803 6.66127,3.282266 c 3.6637,1.805246 7.81406,4.652273 9.22302,6.326725 2.46125,2.925031 2.56173,3.553997 2.56173,16.033476 0,8.559608 -0.42626,13.733874 -1.25,15.173274 -0.9504,1.66074 -1.36984,17.883167 -1.75,67.684252 -0.47423,62.12444 -0.59941,65.70031 -2.42889,69.38686 -1.06089,2.13778 -3.54194,5.0353 -5.51345,6.43894 l -3.58456,2.55206 4.6172,4.6172 c 3.5325,3.5325 4.91432,5.85573 5.88192,9.88916 1.39319,5.80744 0.75303,13.8297 -1.43813,18.02216 -5.44673,10.42152 -23.05941,16.31415 -39.03409,13.05955 z m 23,-10.71053 c 5.52891,-2.84844 8.21869,-6.05564 9.02027,-10.7554 0.66874,-3.92094 0.6492,-3.95516 -0.98863,-1.73157 -0.91898,1.24764 -4.00204,3.49547 -6.85125,4.99519 -4.58356,2.41262 -6.27486,2.72732 -14.68039,2.73157 -10.67194,0.005 -15.74365,-1.77288 -19.43546,-6.81463 -1.83518,-2.50621 -2.10013,-4.53368 -2.38493,-18.25 -0.22383,-10.77991 0.0122,-15.43056 0.78324,-15.43056 0.607,0 3.45118,1.23266 6.3204,2.73924 4.66986,2.45207 6.26509,2.74037 15.21675,2.75 11.1318,0.012 16.06767,-1.69089 19.94331,-6.8804 2.0077,-2.68832 2.06325,-4.03859 2.33186,-56.68138 0.15135,-29.6601 0.096,-53.92746 -0.12288,-53.92746 -0.21893,0 -2.37047,0.87249 -4.78119,1.93887 -11.33375,5.01346 -26.40919,4.43613 -38.1211,-1.45987 l -6.68002,-4.587715 -0.07,72.715895 v 71.52626 l 2.5,3.27767 c 1.375,1.80272 2.5,3.96201 2.5,4.79842 0,2.20684 3.72199,6.59535 7.0558,8.31932 7.65396,3.95802 21.48606,4.31133 28.4442,0.72655 z m -3.85848,-14.88958 c 2.15819,-1.02413 3.96876,-2.89065 4.8501,-5 0.77348,-1.8512 1.87929,-3.36582 2.45735,-3.36582 2.29118,0 0.8136,-1.63221 -3.84736,-4.25 -3.12919,-1.75748 -6.37707,-2.75 -8.99899,-2.75 -3.87727,0 -4.10262,0.1622 -4.10262,2.95295 0,4.44759 -1.94786,7.85171 -5.88523,10.28514 -3.52929,2.18122 -3.5331,2.19139 -1.07829,2.87576 4.63044,1.29089 13.11365,0.90874 16.60504,-0.74803 z m 4.98269,-149.149305 c 5.01753,-2.58992 9.37579,-7.55303 9.37579,-10.676992 V 80.38953 l -5.77577,2.332936 c -11.05457,4.465139 -27.22538,4.903129 -38.84582,-1.516179 -7.01762,-3.876637 -6.39785,-2.19362 -3.93511,0.173266 1.07602,1.034141 1.5567,2.975762 1.5567,3.896408 0,3.465704 7.01997,8.111034 15.5,10.256844 4.87826,1.2344 18.03774,-0.0499 22.12421,-2.15925 z m -3.02832,-18.000226 c 3.60233,-1.127946 8.40411,-2.915397 8.40411,-4.852248 0,-2.24795 -8.81061,-7.22585 -13.87987,-7.84198 -2.54107,-0.308847 -7.60789,-1.065452 -11.2596,-1.681344 l -6.63947,-1.119804 -6.16825,3.747018 c -5.90447,3.586774 -6.09583,3.827058 -4.47451,5.618591 2.18444,2.413784 7.38861,4.578795 12.50782,5.999353 2.94543,0.817347 7.04124,1.795504 11.41388,1.786398 3.75204,-0.0078 7.04706,-0.701349 10.09589,-1.655984 z m 17.98023,-16.55044 c -1.41745,-7.176462 -9.48349,-12.783193 -21.08381,-14.65544 -3.84577,-0.620691 -10.19422,-1.851975 -14.10766,-2.736186 l -7.11535,-1.607656 -10.38465,5.767288 c -5.71156,3.172008 -10.79722,6.157106 -11.30148,6.633551 -0.55001,0.519674 -0.18917,2.479925 0.90188,4.899432 1.79798,3.987215 2.88606,4.85976 3.93789,3.157854 0.86613,-1.401417 13.83427,-8.783785 16.57706,-9.436812 1.375,-0.327372 4.3,-0.145159 6.5,0.404919 2.2,0.550077 7.26009,1.407108 11.24465,1.904513 9.18182,1.146194 15.10469,3.766422 19.93975,8.821164 3.65418,3.820209 3.8502,3.897851 4.63356,1.835248 0.44987,-1.184544 0.56605,-3.429088 0.25816,-4.987875 z"
       id="path2"
       sodipodi:nodetypes="ssscccssssssccccccssssssscsssssssscsssssssssscccsssssssssssssssssssssssssscsssssssscssssssssssss" />
    <path
       d="m 184.93961,59.878837 6.63867,1.11914 c 3.65171,0.615893 8.7187,1.372794 11.25977,1.681641 5.06926,0.61613 13.8789,5.593847 13.8789,7.841797 0,1.936851 -4.80001,3.723617 -8.40234,4.851562 -3.04883,0.954635 -6.34562,1.64845 -10.09766,1.65625 -4.37264,0.0091 -8.46668,-0.969762 -11.41211,-1.787109 -5.11921,-1.420558 -10.32337,-3.584263 -12.50781,-5.998047 -1.62132,-1.791533 -1.42986,-2.032366 4.47461,-5.61914 z"
       style="fill:#b3b3b3;fill-opacity:1"
       id="path9" />
    <path
       d="m 170.78531,78.902274 c 0.63175,-0.02398 2.24034,0.608659 5.31055,2.304688 11.62044,6.419303 27.79113,5.980763 38.8457,1.515625 l 5.77539,-2.333985 v 2.308594 c 0,3.123962 -4.35747,8.085859 -9.375,10.675779 -4.08647,2.10935 -17.24674,3.39456 -22.125,2.16016 -8.48003,-2.14581 -15.5,-6.79211 -15.5,-10.257814 0,-0.920646 -0.48062,-2.862343 -1.55664,-3.896484 -1.38529,-1.331374 -2.18724,-2.445735 -1.375,-2.476563 z"
       style="fill:#ff9800;fill-opacity:1"
       id="path8" />
    <path
       d="m 169.78726,96.048755 6.67969,4.587885 c 11.71191,5.896 26.78735,6.47245 38.1211,1.45899 2.41072,-1.06638 4.56232,-1.93945 4.78125,-1.93945 0.21888,0 0.27439,24.26763 0.12304,53.92773 -0.26861,52.64279 -0.32433,53.99332 -2.33203,56.68164 -3.87564,5.18951 -8.81156,6.89286 -19.94336,6.88086 -8.95166,-0.01 -10.54693,-0.29793 -15.21679,-2.75 -2.86922,-1.50658 -5.71332,-2.74023 -6.32032,-2.74023 -0.77104,0 -1.00703,4.65173 -0.7832,15.43164 0.2848,13.71632 0.55154,15.74379 2.38672,18.25 3.69181,5.04175 8.76165,6.81945 19.43359,6.81445 8.40553,-0.004 10.09808,-0.3198 14.68164,-2.73242 2.84921,-1.49972 5.93259,-3.7465 6.85157,-4.99414 1.63783,-2.22359 1.65702,-2.19047 0.98828,1.73047 -0.80158,4.69976 -3.49258,7.90742 -9.02149,10.75585 -6.95814,3.58479 -20.7894,3.23146 -28.44336,-0.72656 -3.33381,-1.72397 -7.05664,-6.11152 -7.05664,-8.31836 0,-0.83641 -1.125,-2.9961 -2.5,-4.79883 l -2.5,-3.27734 V 168.7636 Z m 31.03321,131.107425 c 2.62192,0 5.86885,0.99252 8.99804,2.75 4.66096,2.61779 6.13884,4.25 3.84766,4.25 -0.57806,0 -1.68355,1.51598 -2.45703,3.36718 -0.88134,2.10935 -2.69142,3.97587 -4.84961,5 -3.49139,1.65677 -11.97503,2.03894 -16.60547,0.74805 -2.45481,-0.68437 -2.45116,-0.69573 1.07813,-2.87695 3.93737,-2.43343 5.88476,-5.83757 5.88476,-10.28516 0,-2.79075 0.22625,-2.95312 4.10352,-2.95312 z"
       style="fill:#b3b3b3;fill-opacity:1"
       id="path7" />
    <path
       d="m 183.98648,39.824149 -10.38476,5.767578 c -5.71156,3.172008 -10.79652,6.156368 -11.30078,6.632813 -0.55001,0.519674 -0.18871,2.47893 0.90234,4.898437 1.79798,3.987216 2.88567,4.86011 3.9375,3.158204 0.86613,-1.401417 13.83338,-8.78252 16.57617,-9.435547 1.375,-0.327372 4.3,-0.145781 6.5,0.404297 2.2,0.550077 7.26154,1.406891 11.2461,1.904296 9.18182,1.146194 15.10439,3.765571 19.93945,8.820313 3.65418,3.820209 3.84945,3.89854 4.63281,1.835937 0.44987,-1.184544 0.5657,-3.429494 0.25781,-4.988281 -1.41745,-7.176462 -9.48171,-12.78205 -21.08203,-14.654297 -3.84577,-0.620691 -10.19593,-1.852117 -14.10937,-2.736328 z"
       style="fill:#ff9800;fill-opacity:1"
       id="path3" />
  </g>
</svg>
