<?xml version="1.0" encoding="UTF-8" standalone="no"?>
<!-- Created with Inkscape (http://www.inkscape.org/) -->

<svg
   version="1.1"
   id="svg1"
   width="1261.6"
   height="552.79999"
   viewBox="0 0 1261.6 552.79999"
   sodipodi:docname="long_goals.svg"
   inkscape:version="1.4.2 (f4327f4, 2025-05-13)"
   inkscape:export-filename="long_goal.png"
   inkscape:export-xdpi="96"
   inkscape:export-ydpi="96"
   inkscape:export-batch-path="C:\Users\danie\Documents\Code\push-back-web-calculator\images"
   inkscape:export-batch-name="long_goal"
   xmlns:inkscape="http://www.inkscape.org/namespaces/inkscape"
   xmlns:sodipodi="http://sodipodi.sourceforge.net/DTD/sodipodi-0.dtd"
   xmlns="http://www.w3.org/2000/svg"
   xmlns:svg="http://www.w3.org/2000/svg">
  <defs
     id="defs1" />
  <sodipodi:namedview
     id="namedview1"
     pagecolor="#ffffff"
     bordercolor="#000000"
     borderopacity="0.25"
     inkscape:showpageshadow="2"
     inkscape:pageopacity="0.0"
     inkscape:pagecheckerboard="0"
     inkscape:deskcolor="#d1d1d1"
     inkscape:zoom="0.31330637"
     inkscape:cx="2069.859"
     inkscape:cy="534.62047"
     inkscape:window-width="1920"
     inkscape:window-height="991"
     inkscape:window-x="2391"
     inkscape:window-y="-9"
     inkscape:window-maximized="1"
     inkscape:current-layer="g1">
    <inkscape:page
       x="0"
       y="0"
       width="1261.6"
       height="552.79999"
       id="page10"
       margin="0"
       bleed="0"
       inkscape:label="empty" />
    <inkscape:page
       x="1271.6"
       y="0"
       width="1261.6"
       height="552.79999"
       id="page18"
       margin="0"
       bleed="0"
       inkscape:label="red" />
    <inkscape:page
       x="2543.2"
       y="0"
       width="1261.6"
       height="552.79999"
       id="page19"
       margin="0"
       bleed="0"
       inkscape:label="blue" />
  </sodipodi:namedview>
  <g
     inkscape:groupmode="layer"
     inkscape:label="Image"
     id="g1"
     transform="translate(-1271.6)">
    <path
       d="m 2375.4896,203.88161 c -0.9551,-2.18066 -1.1216,17.06783 -1.1777,136.46093 l -0.064,139 h 32 32 v -21.73828 c 0,-18.90514 -0.768,-21.57288 -1.2949,-23.16601 l -29.4805,-89.14258 c -0.5243,-1.58551 -1.1774,-9.89696 -1.1992,-60.17774 -0.024,-55.12056 -0.2506,-58.01821 -1.4258,-59.06445 -0.6026,-0.53643 -2.4384,-0.94532 -3.7343,-1.2207 -1.4499,-0.3081 -3.4055,-0.97852 -5.0586,-1.49024 -2.5063,-0.77582 -3.1939,-1.34046 -6.5098,-3.20117 -1.8764,-1.05291 -2.7814,-1.80309 -4.4375,-3.19922 -1.7899,-1.50889 -5.2015,-5.43434 -6.3652,-7.07422 -0.4935,-0.69545 -1.1976,-1.7868 -1.7403,-2.79882 -0.527,-0.9826 -0.9,-1.79119 -1.5117,-3.1875 z"
       style="fill:#ff9800;fill-opacity:1"
       id="path18" />
    <path
       d="m 2203.4468,90.739037 -117.5997,0.203125 v 38.400378 38.40039 l 155.7286,0.39844 155.7265,0.40039 c 4.5978,11.93899 4.6034,11.9755 9.8906,23.62305 16.085,-0.14763 32.1689,-0.2837 48.254,-0.42188 l 0.2265,-18.40039 c 0.1241,-10.12 0.028,-19.2042 -0.2129,-20.1875 -0.2711,-1.1069 -1.3597,-1.72787 -2.625,-2.30859 -65.8151,-30.20656 -121.09,-55.03174 -129.6211,-58.707023 -2.4542,-1.057309 -3.1958,-1.601289 -119.7675,-1.40039 z"
       style="fill:#b3b3b3;fill-opacity:1"
       id="path17" />
    <path
       d="m 2052.7007,73.569115 -16.3829,0.05664 0.8633,93.982415 15.8008,0.0488 z"
       style="fill:#ffffff"
       id="path16" />
    <path
       d="m 1766.6479,72.541771 -16.3261,0.05078 0.6445,95.583979 16.375,0.24805 z"
       style="fill:#ffffff"
       id="path15" />
    <path
       d="m 1429.4467,202.14137 c -0.44,0.27194 -0.5571,1.40176 -0.7989,2.44922 -0.3242,1.40437 -1.2441,3.70856 -2.2207,4.82813 -1.4238,1.63236 -2.607,3.21585 -3.3066,3.9707 -0.8599,0.92775 -1.7387,1.78126 -2.8789,2.72461 -1.1174,0.92448 -1.3371,1.14681 -2.9903,2.15039 -2.109,1.28034 -6.886,4.23082 -9.5468,5.08984 -1.8162,0.58636 -6.6796,1.50171 -8.4571,2.64063 -0.785,0.50296 -1,13.16833 -1,58.90234 0,50.12512 -0.4915,58.44361 -1.1953,60.55274 l -29.6367,88.81836 c -0.4668,1.39902 -0.9477,15.50861 -1.1426,23.27343 -0.1823,7.26438 -0.025,21.80078 -0.025,21.80078 h 32 32 V 340.49489 c 0,-92.36109 -0.2687,-138.68241 -0.8007,-138.35352 z"
       style="fill:#ff9800;fill-opacity:1"
       id="path14" />
    <path
       d="m 1601.0483,90.739037 c -116.5717,-0.200899 -117.35,0.261801 -119.7676,1.40039 l -4.6035,1.955078 -119.1094,53.751945 -8.3085,4.69531 c -1.0789,0.60986 -0.8084,38.3361 -0.078,39.06641 0.2933,0.29334 11.2834,0.5332 24.4239,0.5332 22.0412,0 23.9284,-0.10687 24.3632,-1.39844 0.2592,-0.77 1.2256,-2.85882 2.6075,-6.23437 2.0662,-5.0472 3.5947,-8.95396 4.9511,-12.24805 0.8849,-2.14913 1.9297,-3.73437 1.9297,-3.73437 l 155.4063,-0.58203 155.7851,-0.20118 V 129.34254 90.942162 Z"
       id="path13"
       style="fill:#b3b3b3;fill-opacity:1" />
    <path
       d="m 1800.2475,73.342552 -0.207,46.748038 c -0.1629,36.86915 0.011,46.88472 0.8008,47.38867 0.5535,0.35144 46.1862,0.63867 101.4062,0.63867 55.22,0 100.8527,-0.28723 101.4063,-0.63867 0.7938,-0.50395 0.9636,-10.51952 0.8008,-47.38867 l -0.2071,-46.748038 h -102 z"
       style="fill:#b3b3b3;fill-opacity:1"
       id="path12" />
    <path
       d="m 1746.4702,41.48513 c -3.6179,0.422621 -7.0184,1.473341 -8,1.945313 -0.9144,0.439685 -2.7824,1.649801 -4.2227,2.451172 -1.4788,0.822817 -5.6251,3.512046 -9.0781,6.246094 -3.4531,2.734048 -7.4109,5.296422 -8.7949,5.693359 -1.4423,0.413651 -50.737,0.720703 -115.4883,0.720703 -117.2824,0 -121.7764,1.183918 -128.2266,3.318359 l -4.4804,1.482422 -135.4063,61.759758 -5.2285,3.43945 -6.7617,9.20117 -3.7344,7.59961 v 26.79883 26.80078 l 2.711,5.4375 c 3.7436,7.5073 8.7145,12.79763 14.7402,15.68555 6.271,3.00547 8.3903,3.42538 20.1484,4.00391 l 9.5996,0.47265 0.2325,56.40039 c 0.1687,40.96187 0.063,57.30129 -0.6934,59.59961 l -27.2363,82.80078 c -2.2306,6.78144 -2.44,14.43362 -2.1641,40.13086 0.2542,23.6699 0.8829,26.82373 1.6133,28.40039 0.6283,1.35625 1.1674,2.54102 1.8633,3.63086 1.4235,2.22948 7.9006,9.33994 9.3476,10.23828 0.8033,0.49871 1.6745,1.09771 2.6367,1.59961 1.1068,0.57734 2.0834,1.1009 3.1914,1.59961 0.874,0.3934 2.0707,1.0403 2.4864,1.24219 0.7757,0.37666 1.7472,0.55141 3.7832,0.84766 4.2366,0.61647 65.812,1.4114 75.7402,0.36328 4.7483,-0.50129 8.1267,-1.38306 11.1992,-2.92578 4.7667,-2.39342 12.3876,-10.18076 13.5996,-12.25 0.7745,-1.32219 1.5415,-2.3012 2.25,-4.42578 l 1.3497,-4.05079 0.2148,-129.13671 c 0.1539,-92.78364 -0.595,-159.25704 -0.595,-159.25704 l 874.9277,-0.10547 c 0,0 2.6533,59.62755 2.6536,158.45821 4e-4,126.67829 0.023,128.49899 1.6074,132.66797 4.1725,10.97815 13.1398,18.82021 23.5918,20.63086 1.76,0.30489 17.7796,0.71485 35.5997,0.91211 32.9568,0.36482 43.9523,0.42769 48.7539,-1.01953 8.7439,-2.63546 14.9793,-13.78743 17.2793,-18.40235 0,0 1.445,-2.76547 1.873,-4.82031 0.4277,-2.05484 0.4941,-30.76367 0.4941,-30.76367 0,-27.51066 -0.6451,-30.81295 -1.3418,-32.88282 l -27.5839,-81.94921 c -0.5221,-1.55121 -1.0478,-11.93489 -0.8789,-59.59961 l 0.205,-57.9336 5.5996,-0.16797 c 10.8071,-0.32649 21.4686,-1.93521 24.4004,-3.68164 3.4139,-2.03367 13.5955,-11.67587 13.6055,-12.88086 0,-0.47782 0.4774,-1.77481 1.0547,-2.88086 2.4586,-4.71073 3.1284,-13.72604 2.7422,-36.85937 -0.3295,-19.74132 -0.5776,-23.25424 -1.8906,-26.72852 -2.1691,-5.73906 -8.2246,-13.51225 -11.5118,-15.18164 -18.3288,-9.3082 -118.4175,-54.814958 -146.7773,-66.173816 -2.8813,-1.154049 -33.6017,-1.026583 -122.4629,-1.212891 l -118.4414,-0.248047 -3.5254,-3.591797 c -1.939,-1.975732 -3.4839,-3.043213 -4.4844,-3.591797 -0.4619,-0.25328 -2.264,-1.388075 -4.25,-2.751953 -1.946,-1.336344 -3.8965,-2.672207 -5.0761,-3.294922 -0.9061,-0.478317 -2.1182,-1.227193 -3.1368,-1.730468 -0.8876,-0.438572 -3.6227,-1.571964 -6.3984,-2.042969 -6.5797,-1.116494 -303.6827,-1.151728 -313.2246,-0.03711 z m 20.1777,31.056641 0.6934,95.882809 -16.375,-0.24805 -0.6445,-95.583978 z m 33.5996,0.800781 h 102 102 l 0.2071,46.748038 c 0.1628,36.86915 -0.01,46.88472 -0.8008,47.38867 -0.5536,0.35144 -46.1863,0.63867 -101.4063,0.63867 -55.22,0 -100.8527,-0.28723 -101.4062,-0.63867 -0.79,-0.50395 -0.9637,-10.51952 -0.8008,-47.38867 z m 252.4532,0.226563 0.2812,94.087885 -15.8008,-0.0488 -0.8633,-93.982415 z m -451.6524,17.169922 117.5996,0.203125 v 38.400378 38.40039 l -155.7851,0.20118 -155.4063,0.58203 c 0,0 -1.0448,1.58524 -1.9297,3.73437 -1.3564,3.29409 -2.8849,7.20085 -4.9511,12.24805 -1.3819,3.37555 -2.3483,5.46437 -2.6075,6.23437 -0.4348,1.29157 -2.322,1.39844 -24.3632,1.39844 -13.1405,0 -24.1306,-0.23986 -24.4239,-0.5332 -0.7302,-0.73031 -1.0007,-38.45655 0.078,-39.06641 l 8.3085,-4.69531 119.1094,-53.751945 4.6035,-1.955078 c 2.4176,-1.138589 3.1959,-1.601289 119.7676,-1.40039 z m 602.3985,0 c 116.5717,-0.200899 117.3133,0.343081 119.7675,1.40039 8.5311,3.675283 63.806,28.500463 129.6211,58.707023 1.2653,0.58072 2.3539,1.20169 2.625,2.30859 0.2412,0.9833 0.337,10.0675 0.2129,20.1875 l -0.2265,18.40039 c -16.0851,0.13818 -32.169,0.27425 -48.254,0.42188 -5.2872,-11.64755 -5.2928,-11.68406 -9.8906,-23.62305 l -155.7265,-0.40039 -155.7286,-0.39844 V 129.34254 90.942162 Z m -774,111.402333 c 0.532,-0.32889 0.8007,45.99243 0.8007,138.35352 v 138.84765 h -32 -32 c 0,0 -0.1569,-14.5364 0.025,-21.80078 0.1949,-7.76482 0.6758,-21.87441 1.1426,-23.27343 l 29.6367,-88.81836 c 0.7038,-2.10913 1.1953,-10.42762 1.1953,-60.55274 0,-45.73401 0.215,-58.39938 1,-58.90234 1.7775,-1.13892 6.6409,-2.05427 8.4571,-2.64063 2.6608,-0.85902 7.4378,-3.8095 9.5468,-5.08984 1.6532,-1.00358 1.8729,-1.22591 2.9903,-2.15039 1.1402,-0.94335 2.019,-1.79686 2.8789,-2.72461 0.6996,-0.75485 1.8828,-2.33834 3.3066,-3.9707 0.9766,-1.11957 1.8965,-3.42376 2.2207,-4.82813 0.2418,-1.04746 0.3589,-2.17728 0.7989,-2.44922 z m 946.0429,1.74024 c 0.6117,1.39631 0.9847,2.2049 1.5117,3.1875 0.5427,1.01202 1.2468,2.10337 1.7403,2.79882 1.1637,1.63988 4.5753,5.56533 6.3652,7.07422 1.6561,1.39613 2.5611,2.14631 4.4375,3.19922 3.3159,1.86071 4.0035,2.42535 6.5098,3.20117 1.6531,0.51172 3.6087,1.18214 5.0586,1.49024 1.2959,0.27538 3.1317,0.68427 3.7343,1.2207 1.1752,1.04624 1.4018,3.94389 1.4258,59.06445 0.022,50.28078 0.6749,58.59223 1.1992,60.17774 l 29.4805,89.14258 c 0.5269,1.59313 1.2949,4.26087 1.2949,23.16601 v 21.73828 h -32 -32 l 0.064,-139 c 0.056,-119.3931 0.2226,-138.64159 1.1777,-136.46093 z"
       id="path11"
       sodipodi:nodetypes="sssssscccccccccscccccssssssssssscccccscsssccccccccscssssscccssssssccccccccccscccccccccccccccssssccccsccsscccccccccccsccccccsssssscscccssssssssccscccccc" />
    <path
       d="m 3647.0895,203.8816 c -0.9551,-2.18066 -1.1216,17.06783 -1.1777,136.46093 l -0.064,139.00004 h 32 32 v -21.73831 c 0,-18.90515 -0.768,-21.57289 -1.2949,-23.16602 l -29.4805,-89.14258 c -0.5243,-1.58551 -1.1774,-9.89696 -1.1992,-60.17774 -0.024,-55.12056 -0.2506,-58.01821 -1.4258,-59.06445 -0.6026,-0.53643 -2.4384,-0.94532 -3.7343,-1.2207 -1.4499,-0.3081 -3.4055,-0.97852 -5.0586,-1.49024 -2.5063,-0.77582 -3.1939,-1.34046 -6.5098,-3.20117 -1.8764,-1.05291 -2.7814,-1.80309 -4.4375,-3.19922 -1.7899,-1.50889 -5.2015,-5.43434 -6.3652,-7.07422 -0.4935,-0.69545 -1.1976,-1.7868 -1.7403,-2.79882 -0.527,-0.9826 -0.9,-1.79119 -1.5117,-3.1875 z"
       style="fill:#ff9800;fill-opacity:1"
       id="path18-7" />
    <path
       d="m 3475.0467,90.739033 -117.5997,0.20312 v 38.400377 38.40039 l 155.7286,0.39844 155.7265,0.40039 c 4.5978,11.93899 4.6034,11.9755 9.8906,23.62305 16.085,-0.14763 32.1689,-0.2837 48.254,-0.42188 l 0.2265,-18.40039 c 0.1241,-10.12 0.028,-19.2042 -0.2129,-20.1875 -0.2711,-1.1069 -1.3597,-1.72787 -2.625,-2.30859 -65.8151,-30.20656 -121.09,-55.031738 -129.6211,-58.707017 -2.4542,-1.05731 -3.1958,-1.60129 -119.7675,-1.40039 z"
       style="fill:#b3b3b3;fill-opacity:1"
       id="path17-7" />
    <path
       d="m 3324.3006,73.569103 -16.3829,0.0566 0.8633,93.982417 15.8008,0.0488 z"
       style="fill:#ffffff"
       id="path16-7" />
    <path
       d="m 3038.2478,72.541763 -16.3261,0.0508 0.6445,95.583977 16.375,0.24805 z"
       style="fill:#ffffff"
       id="path15-3" />
    <path
       d="m 2701.0466,202.14136 c -0.44,0.27194 -0.5571,1.40176 -0.7989,2.44922 -0.3242,1.40437 -1.2441,3.70856 -2.2207,4.82813 -1.4238,1.63236 -2.607,3.21585 -3.3066,3.9707 -0.8599,0.92775 -1.7387,1.78126 -2.8789,2.72461 -1.1174,0.92448 -1.3371,1.14681 -2.9903,2.15039 -2.109,1.28034 -6.886,4.23082 -9.5468,5.08984 -1.8162,0.58636 -6.6796,1.50171 -8.4571,2.64063 -0.785,0.50296 -1,13.16833 -1,58.90234 0,50.12512 -0.4915,58.44361 -1.1953,60.55274 l -29.6367,88.81836 c -0.4668,1.39902 -0.9477,15.50861 -1.1426,23.27344 -0.1823,7.2644 -0.025,21.80081 -0.025,21.80081 h 32 32 V 340.49488 c 0,-92.36109 -0.2687,-138.68241 -0.8007,-138.35352 z"
       style="fill:#ff9800;fill-opacity:1"
       id="path14-3" />
    <path
       d="m 2872.6482,90.739033 c -116.5717,-0.2009 -117.35,0.2618 -119.7676,1.40039 l -4.6035,1.95507 -119.1094,53.751947 -8.3085,4.69531 c -1.0789,0.60986 -0.8084,38.3361 -0.078,39.06641 0.2933,0.29334 11.2834,0.5332 24.4239,0.5332 22.0412,0 23.9284,-0.10687 24.3632,-1.39844 0.2592,-0.77 1.2256,-2.85882 2.6075,-6.23437 2.0662,-5.0472 3.5947,-8.95396 4.9511,-12.24805 0.8849,-2.14913 1.9297,-3.73437 1.9297,-3.73437 l 155.4063,-0.58203 155.7851,-0.20118 V 129.34253 90.942153 Z"
       id="path13-5"
       style="fill:#b3b3b3;fill-opacity:1" />
    <path
       d="m 3071.8474,73.342543 -0.207,46.748037 c -0.1629,36.86915 0.011,46.88472 0.8008,47.38867 0.5535,0.35144 46.1862,0.63867 101.4062,0.63867 55.22,0 100.8527,-0.28723 101.4063,-0.63867 0.7938,-0.50395 0.9636,-10.51952 0.8008,-47.38867 l -0.2071,-46.748037 h -102 z"
       style="fill:#ffbdbd;fill-opacity:1"
       id="path12-9" />
    <path
       d="m 3018.0701,41.485123 c -3.6179,0.42262 -7.0184,1.47334 -8,1.94531 -0.9144,0.43969 -2.7824,1.6498 -4.2227,2.45117 -1.4788,0.82282 -5.6251,3.51205 -9.0781,6.2461 -3.4531,2.73405 -7.4109,5.29642 -8.7949,5.69336 -1.4423,0.41365 -50.737,0.7207 -115.4883,0.7207 -117.2824,0 -121.7764,1.18392 -128.2266,3.31836 l -4.4804,1.48242 -135.4063,61.759757 -5.2285,3.43945 -6.7617,9.20117 -3.7344,7.59961 v 26.79883 26.80078 l 2.711,5.4375 c 3.7436,7.5073 8.7145,12.79763 14.7402,15.68555 6.271,3.00547 8.3903,3.42538 20.1484,4.00391 l 9.5996,0.47265 0.2325,56.40039 c 0.1687,40.96187 0.063,57.30129 -0.6934,59.59961 l -27.2363,82.80078 c -2.2306,6.78144 -2.44,14.43362 -2.1641,40.13083 0.2542,23.66991 0.8829,26.82381 1.6133,28.40041 0.6283,1.3563 1.1674,2.541 1.8633,3.6309 1.4235,2.2295 7.9006,9.3399 9.3476,10.2383 0.8033,0.4987 1.6745,1.0977 2.6367,1.5996 1.1068,0.5773 2.0834,1.1009 3.1914,1.5996 0.874,0.3934 2.0707,1.0403 2.4864,1.2422 0.7757,0.3766 1.7472,0.5514 3.7832,0.8476 4.2366,0.6165 65.812,1.4114 75.7402,0.3633 4.7483,-0.5013 8.1267,-1.383 11.1992,-2.9258 4.7667,-2.3934 12.3876,-10.1807 13.5996,-12.25 0.7745,-1.3222 1.5415,-2.3012 2.25,-4.4257 l 1.3497,-4.0508 0.2148,-129.13676 c 0.1539,-92.78364 -0.595,-159.25704 -0.595,-159.25704 l 874.9277,-0.10547 c 0,0 2.6533,59.62755 2.6536,158.45821 4e-4,126.67826 0.023,128.49896 1.6074,132.66796 4.1725,10.9782 13.1398,18.8202 23.5918,20.6309 1.76,0.3049 17.7796,0.7148 35.5997,0.9121 32.9568,0.3648 43.9523,0.4277 48.7539,-1.0195 8.7439,-2.6355 14.9793,-13.7875 17.2793,-18.4024 0,0 1.445,-2.7655 1.873,-4.8203 0.4277,-2.0548 0.4941,-30.76371 0.4941,-30.76371 0,-27.51063 -0.6451,-30.81292 -1.3418,-32.88279 l -27.5839,-81.94921 c -0.5221,-1.55121 -1.0478,-11.93489 -0.8789,-59.59961 l 0.205,-57.9336 5.5996,-0.16797 c 10.8071,-0.32649 21.4686,-1.93521 24.4004,-3.68164 3.4139,-2.03367 13.5955,-11.67587 13.6055,-12.88086 0,-0.47782 0.4774,-1.77481 1.0547,-2.88086 2.4586,-4.71073 3.1284,-13.72604 2.7422,-36.85937 -0.3295,-19.74132 -0.5776,-23.25424 -1.8906,-26.72852 -2.1691,-5.73906 -8.2246,-13.51225 -11.5118,-15.18164 -18.3288,-9.3082 -118.4175,-54.814957 -146.7773,-66.173817 -2.8813,-1.15405 -33.6017,-1.02658 -122.4629,-1.21289 l -118.4414,-0.24804 -3.5254,-3.5918 c -1.939,-1.97573 -3.4839,-3.04321 -4.4844,-3.5918 -0.4619,-0.25328 -2.264,-1.38807 -4.25,-2.75195 -1.946,-1.33635 -3.8965,-2.67221 -5.0761,-3.29492 -0.9061,-0.47832 -2.1182,-1.2272 -3.1368,-1.73047 -0.8876,-0.43857 -3.6227,-1.57197 -6.3984,-2.04297 -6.5797,-1.11649 -303.6827,-1.15173 -313.2246,-0.0371 z m 20.1777,31.05664 0.6934,95.882807 -16.375,-0.24805 -0.6445,-95.583977 z m 33.5996,0.80078 h 102 102 l 0.2071,46.748037 c 0.1628,36.86915 -0.01,46.88472 -0.8008,47.38867 -0.5536,0.35144 -46.1863,0.63867 -101.4063,0.63867 -55.22,0 -100.8527,-0.28723 -101.4062,-0.63867 -0.79,-0.50395 -0.9637,-10.51952 -0.8008,-47.38867 z m 252.4532,0.22656 0.2812,94.087887 -15.8008,-0.0488 -0.8633,-93.982417 z m -451.6524,17.16993 117.5996,0.20312 v 38.400377 38.40039 l -155.7851,0.20118 -155.4063,0.58203 c 0,0 -1.0448,1.58524 -1.9297,3.73437 -1.3564,3.29409 -2.8849,7.20085 -4.9511,12.24805 -1.3819,3.37555 -2.3483,5.46437 -2.6075,6.23437 -0.4348,1.29157 -2.322,1.39844 -24.3632,1.39844 -13.1405,0 -24.1306,-0.23986 -24.4239,-0.5332 -0.7302,-0.73031 -1.0007,-38.45655 0.078,-39.06641 l 8.3085,-4.69531 119.1094,-53.751947 4.6035,-1.95507 c 2.4176,-1.13859 3.1959,-1.60129 119.7676,-1.40039 z m 602.3985,0 c 116.5717,-0.2009 117.3133,0.34308 119.7675,1.40039 8.5311,3.675279 63.806,28.500457 129.6211,58.707017 1.2653,0.58072 2.3539,1.20169 2.625,2.30859 0.2412,0.9833 0.337,10.0675 0.2129,20.1875 l -0.2265,18.40039 c -16.0851,0.13818 -32.169,0.27425 -48.254,0.42188 -5.2872,-11.64755 -5.2928,-11.68406 -9.8906,-23.62305 l -155.7265,-0.40039 -155.7286,-0.39844 V 129.34253 90.942153 Z m -774,111.402327 c 0.532,-0.32889 0.8007,45.99243 0.8007,138.35352 v 138.84769 h -32 -32 c 0,0 -0.1569,-14.53641 0.025,-21.80081 0.1949,-7.76483 0.6758,-21.87442 1.1426,-23.27344 l 29.6367,-88.81836 c 0.7038,-2.10913 1.1953,-10.42762 1.1953,-60.55274 0,-45.73401 0.215,-58.39938 1,-58.90234 1.7775,-1.13892 6.6409,-2.05427 8.4571,-2.64063 2.6608,-0.85902 7.4378,-3.8095 9.5468,-5.08984 1.6532,-1.00358 1.8729,-1.22591 2.9903,-2.15039 1.1402,-0.94335 2.019,-1.79686 2.8789,-2.72461 0.6996,-0.75485 1.8828,-2.33834 3.3066,-3.9707 0.9766,-1.11957 1.8965,-3.42376 2.2207,-4.82813 0.2418,-1.04746 0.3589,-2.17728 0.7989,-2.44922 z m 946.0429,1.74024 c 0.6117,1.39631 0.9847,2.2049 1.5117,3.1875 0.5427,1.01202 1.2468,2.10337 1.7403,2.79882 1.1637,1.63988 4.5753,5.56533 6.3652,7.07422 1.6561,1.39613 2.5611,2.14631 4.4375,3.19922 3.3159,1.86071 4.0035,2.42535 6.5098,3.20117 1.6531,0.51172 3.6087,1.18214 5.0586,1.49024 1.2959,0.27538 3.1317,0.68427 3.7343,1.2207 1.1752,1.04624 1.4018,3.94389 1.4258,59.06445 0.022,50.28078 0.6749,58.59223 1.1992,60.17774 l 29.4805,89.14258 c 0.5269,1.59313 1.2949,4.26087 1.2949,23.16602 v 21.73831 h -32 -32 l 0.064,-139.00004 c 0.056,-119.3931 0.2226,-138.64159 1.1777,-136.46093 z"
       id="path11-9"
       sodipodi:nodetypes="sssssscccccccccscccccssssssssssscccccscsssccccccccscssssscccssssssccccccccccscccccccccccccccssssccccsccsscccccccccccsccccccsssssscscccssssssssccscccccc" />
    <path
       d="m 4918.6895,203.88159 c -0.9551,-2.18066 -1.1216,17.06783 -1.1777,136.46093 l -0.064,138.99998 h 32 32 v -21.73826 c 0,-18.90514 -0.768,-21.57288 -1.2949,-23.16601 l -29.4805,-89.14258 c -0.5243,-1.58551 -1.1774,-9.89696 -1.1992,-60.17774 -0.024,-55.12056 -0.2506,-58.01821 -1.4258,-59.06445 -0.6026,-0.53643 -2.4384,-0.94532 -3.7343,-1.2207 -1.4499,-0.3081 -3.4055,-0.97852 -5.0586,-1.49024 -2.5063,-0.77582 -3.1939,-1.34046 -6.5098,-3.20117 -1.8764,-1.05291 -2.7814,-1.80309 -4.4375,-3.19922 -1.7899,-1.50889 -5.2015,-5.43434 -6.3652,-7.07422 -0.4935,-0.69545 -1.1976,-1.7868 -1.7403,-2.79882 -0.527,-0.9826 -0.9,-1.79119 -1.5117,-3.1875 z"
       style="fill:#ff9800;fill-opacity:1"
       id="path18-6" />
    <path
       d="m 4746.6467,90.73901 -117.5997,0.20312 v 38.40039 38.40039 l 155.7286,0.39844 155.7265,0.40039 c 4.5978,11.93899 4.6034,11.9755 9.8906,23.62305 16.085,-0.14763 32.1689,-0.2837 48.254,-0.42188 l 0.2265,-18.40039 c 0.1241,-10.12 0.028,-19.2042 -0.2129,-20.1875 -0.2711,-1.1069 -1.3597,-1.72787 -2.625,-2.30859 -65.8151,-30.20656 -121.09,-55.03175 -129.6211,-58.70703 -2.4542,-1.05731 -3.1958,-1.60129 -119.7675,-1.40039 z"
       style="fill:#b3b3b3;fill-opacity:1"
       id="path17-6" />
    <path
       d="m 4595.9006,73.56909 -16.3829,0.0566 0.8633,93.98242 15.8008,0.0488 z"
       style="fill:#ffffff"
       id="path16-0" />
    <path
       d="m 4309.8478,72.54174 -16.3261,0.0508 0.6445,95.58399 16.375,0.24805 z"
       style="fill:#ffffff"
       id="path15-38" />
    <path
       d="m 3972.6466,202.14135 c -0.44,0.27194 -0.5571,1.40176 -0.7989,2.44922 -0.3242,1.40437 -1.2441,3.70856 -2.2207,4.82813 -1.4238,1.63236 -2.607,3.21585 -3.3066,3.9707 -0.8599,0.92775 -1.7387,1.78126 -2.8789,2.72461 -1.1174,0.92448 -1.3371,1.14681 -2.9903,2.15039 -2.109,1.28034 -6.886,4.23082 -9.5468,5.08984 -1.8162,0.58636 -6.6796,1.50171 -8.4571,2.64063 -0.785,0.50296 -1,13.16833 -1,58.90234 0,50.12512 -0.4915,58.44361 -1.1953,60.55274 l -29.6367,88.81836 c -0.4668,1.39902 -0.9477,15.50861 -1.1426,23.27343 -0.1823,7.26434 -0.025,21.80076 -0.025,21.80076 h 32 32 V 340.49487 c 0,-92.36109 -0.2687,-138.68241 -0.8007,-138.35352 z"
       style="fill:#ff9800;fill-opacity:1"
       id="path14-01" />
    <path
       d="m 4144.2482,90.73901 c -116.5717,-0.2009 -117.35,0.2618 -119.7676,1.40039 l -4.6035,1.95508 -119.1094,53.75195 -8.3085,4.69531 c -1.0789,0.60986 -0.8084,38.3361 -0.078,39.06641 0.2933,0.29334 11.2834,0.5332 24.4239,0.5332 22.0412,0 23.9284,-0.10687 24.3632,-1.39844 0.2592,-0.77 1.2256,-2.85882 2.6075,-6.23437 2.0662,-5.0472 3.5947,-8.95396 4.9511,-12.24805 0.8849,-2.14913 1.9297,-3.73437 1.9297,-3.73437 l 155.4063,-0.58203 155.7851,-0.20118 V 129.34252 90.94213 Z"
       id="path13-25"
       style="fill:#b3b3b3;fill-opacity:1" />
    <path
       d="m 4343.4474,73.34252 -0.207,46.74805 c -0.1629,36.86915 0.011,46.88472 0.8008,47.38867 0.5535,0.35144 46.1862,0.63867 101.4062,0.63867 55.22,0 100.8527,-0.28723 101.4063,-0.63867 0.7938,-0.50395 0.9636,-10.51952 0.8008,-47.38867 l -0.2071,-46.74805 h -102 z"
       style="fill:#a9ccff;fill-opacity:1"
       id="path12-0" />
    <path
       d="m 4289.6701,41.4851 c -3.6179,0.42262 -7.0184,1.47334 -8,1.94531 -0.9144,0.43969 -2.7824,1.6498 -4.2227,2.45118 -1.4788,0.82281 -5.6251,3.51204 -9.0781,6.24609 -3.4531,2.73405 -7.4109,5.29642 -8.7949,5.69336 -1.4423,0.41365 -50.737,0.7207 -115.4883,0.7207 -117.2824,0 -121.7764,1.18392 -128.2266,3.31836 l -4.4804,1.48242 -135.4063,61.75977 -5.2285,3.43945 -6.7617,9.20117 -3.7344,7.59961 v 26.79883 26.80078 l 2.711,5.4375 c 3.7436,7.5073 8.7145,12.79763 14.7402,15.68555 6.271,3.00547 8.3903,3.42538 20.1484,4.00391 l 9.5996,0.47265 0.2325,56.40039 c 0.1687,40.96187 0.063,57.30129 -0.6934,59.59961 l -27.2363,82.80078 c -2.2306,6.78144 -2.44,14.43362 -2.1641,40.13086 0.2542,23.66992 0.8829,26.82372 1.6133,28.40042 0.6283,1.3562 1.1674,2.541 1.8633,3.6308 1.4235,2.2295 7.9006,9.34 9.3476,10.2383 0.8033,0.4987 1.6745,1.0977 2.6367,1.5996 1.1068,0.5774 2.0834,1.1009 3.1914,1.5996 0.874,0.3934 2.0707,1.0404 2.4864,1.2422 0.7757,0.3767 1.7472,0.5514 3.7832,0.8477 4.2366,0.6165 65.812,1.4114 75.7402,0.3633 4.7483,-0.5013 8.1267,-1.3831 11.1992,-2.9258 4.7667,-2.3934 12.3876,-10.1808 13.5996,-12.25 0.7745,-1.3222 1.5415,-2.3012 2.25,-4.4258 l 1.3497,-4.0508 0.2148,-129.1367 c 0.1539,-92.78364 -0.595,-159.25704 -0.595,-159.25704 l 874.9277,-0.10547 c 0,0 2.6533,59.62755 2.6536,158.45821 4e-4,126.6783 0.023,128.499 1.6074,132.668 4.1725,10.9781 13.1398,18.8202 23.5918,20.6309 1.76,0.3048 17.7796,0.7148 35.5997,0.9121 32.9568,0.3648 43.9523,0.4277 48.7539,-1.0196 8.7439,-2.6354 14.9793,-13.7874 17.2793,-18.4023 0,0 1.445,-2.7655 1.873,-4.8203 0.4277,-2.0549 0.4941,-30.76372 0.4941,-30.76372 0,-27.51066 -0.6451,-30.81295 -1.3418,-32.88282 l -27.5839,-81.94921 c -0.5221,-1.55121 -1.0478,-11.93489 -0.8789,-59.59961 l 0.205,-57.9336 5.5996,-0.16797 c 10.8071,-0.32649 21.4686,-1.93521 24.4004,-3.68164 3.4139,-2.03367 13.5955,-11.67587 13.6055,-12.88086 0,-0.47782 0.4774,-1.77481 1.0547,-2.88086 2.4586,-4.71073 3.1284,-13.72604 2.7422,-36.85937 -0.3295,-19.74132 -0.5776,-23.25424 -1.8906,-26.72852 -2.1691,-5.73906 -8.2246,-13.51225 -11.5118,-15.18164 -18.3288,-9.3082 -118.4175,-54.81497 -146.7773,-66.17383 -2.8813,-1.15405 -33.6017,-1.02658 -122.4629,-1.21289 l -118.4414,-0.24804 -3.5254,-3.5918 c -1.939,-1.97573 -3.4839,-3.04321 -4.4844,-3.5918 -0.4619,-0.25328 -2.264,-1.38807 -4.25,-2.75195 -1.946,-1.33635 -3.8965,-2.67221 -5.0761,-3.29492 -0.9061,-0.47832 -2.1182,-1.2272 -3.1368,-1.73047 -0.8876,-0.43857 -3.6227,-1.57197 -6.3984,-2.04297 -6.5797,-1.11649 -303.6827,-1.15173 -313.2246,-0.0371 z m 20.1777,31.05664 0.6934,95.88282 -16.375,-0.24805 -0.6445,-95.58399 z m 33.5996,0.80078 h 102 102 l 0.2071,46.74805 c 0.1628,36.86915 -0.01,46.88472 -0.8008,47.38867 -0.5536,0.35144 -46.1863,0.63867 -101.4063,0.63867 -55.22,0 -100.8527,-0.28723 -101.4062,-0.63867 -0.79,-0.50395 -0.9637,-10.51952 -0.8008,-47.38867 z m 252.4532,0.22657 0.2812,94.08789 -15.8008,-0.0488 -0.8633,-93.98243 z m -451.6524,17.16992 117.5996,0.20312 v 38.40039 38.40039 l -155.7851,0.20118 -155.4063,0.58203 c 0,0 -1.0448,1.58524 -1.9297,3.73437 -1.3564,3.29409 -2.8849,7.20085 -4.9511,12.24805 -1.3819,3.37555 -2.3483,5.46437 -2.6075,6.23437 -0.4348,1.29157 -2.322,1.39844 -24.3632,1.39844 -13.1405,0 -24.1306,-0.23986 -24.4239,-0.5332 -0.7302,-0.73031 -1.0007,-38.45655 0.078,-39.06641 l 8.3085,-4.69531 119.1094,-53.75195 4.6035,-1.95508 c 2.4176,-1.13859 3.1959,-1.60129 119.7676,-1.40039 z m 602.3985,0 c 116.5717,-0.2009 117.3133,0.34308 119.7675,1.40039 8.5311,3.67528 63.806,28.50047 129.6211,58.70703 1.2653,0.58072 2.3539,1.20169 2.625,2.30859 0.2412,0.9833 0.337,10.0675 0.2129,20.1875 l -0.2265,18.40039 c -16.0851,0.13818 -32.169,0.27425 -48.254,0.42188 -5.2872,-11.64755 -5.2928,-11.68406 -9.8906,-23.62305 l -155.7265,-0.40039 -155.7286,-0.39844 V 129.34252 90.94213 Z m -774,111.40234 c 0.532,-0.32889 0.8007,45.99243 0.8007,138.35352 V 479.3425 h -32 -32 c 0,0 -0.1569,-14.53642 0.025,-21.80076 0.1949,-7.76482 0.6758,-21.87441 1.1426,-23.27343 l 29.6367,-88.81836 c 0.7038,-2.10913 1.1953,-10.42762 1.1953,-60.55274 0,-45.73401 0.215,-58.39938 1,-58.90234 1.7775,-1.13892 6.6409,-2.05427 8.4571,-2.64063 2.6608,-0.85902 7.4378,-3.8095 9.5468,-5.08984 1.6532,-1.00358 1.8729,-1.22591 2.9903,-2.15039 1.1402,-0.94335 2.019,-1.79686 2.8789,-2.72461 0.6996,-0.75485 1.8828,-2.33834 3.3066,-3.9707 0.9766,-1.11957 1.8965,-3.42376 2.2207,-4.82813 0.2418,-1.04746 0.3589,-2.17728 0.7989,-2.44922 z m 946.0429,1.74024 c 0.6117,1.39631 0.9847,2.2049 1.5117,3.1875 0.5427,1.01202 1.2468,2.10337 1.7403,2.79882 1.1637,1.63988 4.5753,5.56533 6.3652,7.07422 1.6561,1.39613 2.5611,2.14631 4.4375,3.19922 3.3159,1.86071 4.0035,2.42535 6.5098,3.20117 1.6531,0.51172 3.6087,1.18214 5.0586,1.49024 1.2959,0.27538 3.1317,0.68427 3.7343,1.2207 1.1752,1.04624 1.4018,3.94389 1.4258,59.06445 0.022,50.28078 0.6749,58.59223 1.1992,60.17774 l 29.4805,89.14258 c 0.5269,1.59313 1.2949,4.26087 1.2949,23.16601 v 21.73826 h -32 -32 l 0.064,-138.99998 c 0.056,-119.3931 0.2226,-138.64159 1.1777,-136.46093 z"
       id="path11-94"
       sodipodi:nodetypes="sssssscccccccccscccccssssssssssscccccscsssccccccccscssssscccssssssccccccccccscccccccccccccccssssccccsccsscccccccccccsccccccsssssscscccssssssssccscccccc" />
  </g>
</svg>
