<?xml version="1.0" encoding="UTF-8" standalone="no"?>
<!-- Created with Inkscape (http://www.inkscape.org/) -->

<svg
   version="1.1"
   id="svg1"
   width="448.26221"
   height="286.72794"
   viewBox="0 0 448.2622 286.72793"
   sodipodi:docname="park.svg"
   inkscape:version="1.4.2 (f4327f4, 2025-05-13)"
   inkscape:export-batch-path="C:\Users\danie\Documents\Code\push-back-web-calculator\images"
   inkscape:export-batch-name="park"
   xmlns:inkscape="http://www.inkscape.org/namespaces/inkscape"
   xmlns:sodipodi="http://sodipodi.sourceforge.net/DTD/sodipodi-0.dtd"
   xmlns="http://www.w3.org/2000/svg"
   xmlns:svg="http://www.w3.org/2000/svg">
  <defs
     id="defs1" />
  <sodipodi:namedview
     id="namedview1"
     pagecolor="#ffffff"
     bordercolor="#000000"
     borderopacity="0.25"
     inkscape:showpageshadow="2"
     inkscape:pageopacity="0.0"
     inkscape:pagecheckerboard="0"
     inkscape:deskcolor="#d1d1d1"
     inkscape:zoom="0.73274898"
     inkscape:cx="781.3044"
     inkscape:cy="504.26546"
     inkscape:window-width="1920"
     inkscape:window-height="991"
     inkscape:window-x="2391"
     inkscape:window-y="-9"
     inkscape:window-maximized="1"
     inkscape:current-layer="g1">
    <inkscape:page
       x="458.26221"
       y="0"
       width="448.26221"
       height="286.72794"
       id="page7"
       margin="0"
       bleed="0"
       inkscape:label="blue" />
    <inkscape:page
       x="7.565324e-08"
       y="0"
       width="448.26221"
       height="286.72794"
       id="page6"
       margin="0"
       bleed="0"
       inkscape:label="red" />
    <inkscape:page
       x="916.52441"
       y="0"
       width="448.26221"
       height="286.72794"
       id="page8"
       margin="0"
       bleed="0"
       inkscape:label="clear" />
    <inkscape:page
       x="0.31778979"
       y="299.80734"
       width="448.26221"
       height="286.72794"
       id="page9"
       margin="0"
       bleed="0"
       inkscape:label="red_unparked" />
    <inkscape:page
       x="459.70285"
       y="299.26251"
       width="448.26221"
       height="286.72794"
       id="page10"
       margin="0"
       bleed="0"
       inkscape:label="red_parked" />
    <inkscape:page
       x="0.96001887"
       y="597.13263"
       width="448.26221"
       height="286.72794"
       id="page12"
       margin="0"
       bleed="0"
       inkscape:label="blue_unparked" />
    <inkscape:page
       x="461.24265"
       y="597.815"
       width="448.26221"
       height="286.72794"
       id="page13"
       margin="0"
       bleed="0"
       inkscape:label="blue_parked" />
    <inkscape:page
       x="923.46527"
       y="600.18652"
       width="448.26221"
       height="286.72794"
       id="page14"
       margin="0"
       bleed="0"
       inkscape:label="blue_doubleparked" />
    <inkscape:page
       x="921.93243"
       y="301.75531"
       width="448.26221"
       height="286.72794"
       id="page16"
       margin="0"
       bleed="0"
       inkscape:label="red_doubleparked" />
  </sodipodi:namedview>
  <g
     inkscape:groupmode="layer"
     inkscape:label="Image"
     id="g1"
     transform="translate(-48.714991,-35.276373)">
    <path
       style="fill:#000000"
       d="m 255.95487,293.36051 c -2.8485,-0.72489 -7.7182,-2.62709 -10.8215,-4.22712 -6.4492,-3.32514 -145.0666,-83.53559 -150.706199,-87.20558 -4.6224,-3.00808 -6.1471,-7.30259 -5.6066,-15.7917 0.738,-11.59027 5.3404,-14.9425 21.981999,-16.01094 l 10.6686,-0.68495 71.1122,41.17746 c 39.1117,22.6476 72.1667,41.65792 73.4555,42.24516 2.0937,0.95395 9.122,-2.84899 65.9693,-35.69536 34.9942,-20.21968 63.6259,-37.04351 63.6259,-37.38629 0,-0.34277 -29.2885,-17.48331 -65.0857,-38.09008 -35.7971,-20.60677 -66.3971,-38.73898 -68,-40.29378 -2.3233,-2.253692 -2.9143,-3.693403 -2.9143,-7.099968 0,-5.23502 2.1201,-8.295379 15.2163,-21.96508 l 9.51412,-9.298055 4.86628,-0.08825 c 4.24611,-0.07701 15.4002,6.5793 80.7176,44.372913 42.906,24.82602 77.3644,45.39475 79.3856,47.3863 5.6839,5.60076 7.4668,10.71818 7.6216,21.87547 0.1123,8.09993 -0.2093,10.29107 -2.0096,13.68854 -2.1915,4.13592 -10.422,12.45505 -12.3224,12.45505 -1.146,0 -142.0092,81.03779 -148.3903,85.36814 -2.1409,1.45281 -6.189,3.35715 -8.9958,4.23189 -6.8864,2.14607 -22.7195,2.70636 -29.2826,1.03623 z m 26.0739,-11.67644 6.6053,-2.04018 v -5.88036 c 0,-5.81007 -0.039,-5.88955 -3.25,-6.64831 -5.2225,-1.23401 -33.0415,-0.8405 -35.5517,0.50289 -1.8419,0.98576 -2.1983,2.03983 -2.1983,6.5015 v 5.32499 l 6.25,2.09681 c 8.3496,2.80121 19.3567,2.857 28.1447,0.14266 z m -41.7991,-21.09845 c 1.0474,-1.17557 3.4316,-2.78336 5.2981,-3.57286 l 3.3938,-1.43547 -2.8938,-1.75086 c -1.5915,-0.96297 -30.6284,-17.80491 -64.5263,-37.42652 l -61.6326,-35.67566 -5.8674,0.0576 c -3.2271,0.0317 -7.6674,0.37683 -9.8674,0.76696 l -4,0.70934 v 5.46958 5.46958 l 67.9552,39.25417 67.9551,39.25417 1.1404,-4.49133 c 0.6273,-2.47023 1.9974,-5.45316 3.0449,-6.62873 z m 125.9044,-26.8615 c 33.55,-19.35629 61.1415,-35.32877 61.3145,-35.49438 0.173,-0.16562 0.01,-1.92211 -0.3613,-3.90331 -0.6196,-3.30253 -0.9603,-3.60218 -4.0966,-3.60218 -4.0005,0 -10.3693,-2.42082 -11.9831,-4.55486 -0.9506,-1.25702 -10.6338,4.00044 -62,33.6626 -33.4804,19.33376 -61.0346,35.29242 -61.2316,35.46369 -0.1969,0.17128 1.1741,0.95158 3.0467,1.73401 4.8754,2.03708 8.8114,7.08335 8.8114,11.29697 0,3.44228 0.01,3.44618 2.75,2.01984 1.5125,-0.78601 30.2,-17.26608 63.75,-36.62238 z m 80.1042,-50.70362 c 0.3438,-1.83237 0.3096,-6.27726 -0.076,-9.87753 -0.5655,-5.28019 -1.2844,-7.21043 -3.7182,-9.98234 -1.6595,-1.89001 -3.5424,-3.43638 -4.1844,-3.43638 -1.6617,0 -19.165,17.79391 -18.3273,18.6316 0.3818,0.38183 4.0102,0.96546 8.0631,1.29696 9.2795,0.75901 10.6386,1.83084 10.6386,8.39005 v 5.07372 l 3.4896,-3.38225 c 2.0044,-1.94275 3.7556,-4.80018 4.1146,-6.71383 z m -28.4945,-19.85486 c 5.1647,-5.25723 9.3153,-9.82219 9.2238,-10.14434 -0.092,-0.32216 -31.1417,-18.51679 -69,-40.43253 l -68.8335,-39.846793 -9.2251,9.741135 c -5.0739,5.357624 -9.1239,10.38276 -9,11.166968 0.2468,1.563167 133.2293,78.91876 135.8348,79.01482 0.8854,0.0326 5.8354,-4.24202 11,-9.49926 z"
       id="path1"
       sodipodi:nodetypes="ssssscsssssssscsssssssssscsssscsssscsscsscccccssssscsssssscsssssssscssscscssss" />
    <path
       d="m 438.25954,159.72369 c -1.6617,0 -19.16582,17.79512 -18.32812,18.63281 0.3818,0.38183 4.01155,0.96538 8.06445,1.29688 9.2795,0.75901 10.63867,1.82946 10.63867,8.38867 v 5.07422 l 3.48828,-3.38281 c 2.0044,-1.94275 3.75624,-4.79925 4.11524,-6.7129 0.3438,-1.83237 0.30942,-6.27668 -0.0762,-9.87695 -0.5655,-5.28019 -1.28495,-7.21051 -3.71875,-9.98242 -1.6595,-1.89001 -3.54159,-3.4375 -4.18359,-3.4375 z"
       style="fill:#54575a;fill-opacity:1"
       id="path6" />
    <path
       d="m 266.59157,266.39947 c 7.92134,-0.11205 16.18172,0.0978 18.79297,0.71484 3.211,0.75877 3.25,0.83837 3.25,6.64844 v 5.88086 l -6.60547,2.04102 c -8.788,2.71434 -19.79493,2.65863 -28.14453,-0.14258 l -6.25,-2.09766 v -5.32422 c 0,-4.46167 0.35537,-5.51619 2.19727,-6.50195 1.2551,-0.67169 8.83842,-1.1067 16.75976,-1.21875 z"
       style="fill:#54575a;fill-opacity:1"
       id="path5" />
    <path
       d="m 289.13454,72.741266 -9.22461,9.742188 c -5.0739,5.357624 -9.1239,10.381807 -9,11.166015 0.2468,1.563167 133.22849,78.919571 135.83399,79.015631 0.8854,0.0326 5.8354,-4.24276 11,-9.5 5.1647,-5.25723 9.31611,-9.82239 9.2246,-10.14454 -0.092,-0.32216 -31.14169,-18.5159 -69,-40.43164 z"
       style="fill:#d8292f;fill-opacity:1"
       id="path4" />
    <path
       d="m 411.00759,186.169 c -0.9506,-1.25702 -10.6338,3.99995 -62,33.66211 -33.4804,19.33376 -61.03542,35.29358 -61.23242,35.46485 -0.1969,0.17128 1.17427,0.95194 3.04687,1.73437 4.8754,2.03708 8.8125,7.08326 8.8125,11.29688 0,3.44228 0.01,3.44587 2.75,2.01953 1.5125,-0.78601 30.2,-17.26675 63.75,-36.62305 33.55,-19.35629 61.14145,-35.32853 61.31445,-35.49414 0.173,-0.16562 0.01,-1.92114 -0.36132,-3.90234 -0.6196,-3.30253 -0.96136,-3.60352 -4.09766,-3.60352 -4.0005,0 -10.36862,-2.42065 -11.98242,-4.55469 z"
       style="fill:#d8292f;fill-opacity:1"
       id="path3" />
    <path
       d="m 119.86892,180.72369 -5.86719,0.0586 c -3.2271,0.0317 -7.66719,0.3755 -9.86719,0.76563 l -4,0.71094 v 5.46875 5.46875 l 67.95508,39.25586 67.95508,39.2539 1.14062,-4.49219 c 0.6273,-2.47023 1.99742,-5.45333 3.04492,-6.6289 1.0474,-1.17557 3.43038,-2.78277 5.29688,-3.57227 l 3.39453,-1.43554 -2.89453,-1.75 c -1.5915,-0.96297 -30.62749,-17.80613 -64.52539,-37.42774 z"
       style="fill:#d8292f;fill-opacity:1"
       id="path2" />
    <path
       style="fill:#000000"
       d="m 714.21708,293.36056 c -2.8485,-0.72489 -7.7182,-2.62709 -10.8215,-4.22712 -6.4492,-3.32514 -145.0666,-83.53559 -150.7062,-87.20558 -4.6224,-3.00808 -6.1471,-7.30259 -5.6066,-15.7917 0.738,-11.59027 5.3404,-14.9425 21.982,-16.01094 l 10.6686,-0.68495 71.1122,41.17746 c 39.1117,22.6476 72.1667,41.65792 73.4555,42.24516 2.0937,0.95395 9.122,-2.84899 65.9693,-35.69536 34.9942,-20.21968 63.6259,-37.04351 63.6259,-37.38629 0,-0.34277 -29.2885,-17.48331 -65.0857,-38.09008 -35.7971,-20.60677 -66.3971,-38.73898 -68,-40.29378 -2.3233,-2.253694 -2.9143,-3.693404 -2.9143,-7.099974 0,-5.23502 2.1201,-8.29538 15.2163,-21.96508 l 9.51412,-9.29805 4.86628,-0.0883 c 4.24611,-0.077 15.4002,6.5793 80.7176,44.372914 42.906,24.82602 77.3644,45.39475 79.3856,47.3863 5.6839,5.60076 7.4668,10.71818 7.6216,21.87547 0.1123,8.09993 -0.2093,10.29107 -2.0096,13.68854 -2.1915,4.13592 -10.422,12.45505 -12.3224,12.45505 -1.146,0 -142.0092,81.03779 -148.3903,85.36814 -2.1409,1.45281 -6.189,3.35715 -8.9958,4.23189 -6.8864,2.14607 -22.7195,2.70636 -29.2826,1.03623 z m 26.0739,-11.67644 6.6053,-2.04018 v -5.88036 c 0,-5.81007 -0.039,-5.88955 -3.25,-6.64831 -5.2225,-1.23401 -33.0415,-0.8405 -35.5517,0.50289 -1.8419,0.98576 -2.1983,2.03983 -2.1983,6.5015 v 5.32499 l 6.25,2.09681 c 8.3496,2.80121 19.3567,2.857 28.1447,0.14266 z m -41.7991,-21.09845 c 1.0474,-1.17557 3.4316,-2.78336 5.2981,-3.57286 l 3.3938,-1.43547 -2.8938,-1.75086 c -1.5915,-0.96297 -30.6284,-17.80491 -64.5263,-37.42652 l -61.6326,-35.67566 -5.8674,0.0576 c -3.2271,0.0317 -7.6674,0.37683 -9.8674,0.76696 l -4,0.70934 v 5.46958 5.46958 l 67.9552,39.25417 67.9551,39.25417 1.1404,-4.49133 c 0.6273,-2.47023 1.9974,-5.45316 3.0449,-6.62873 z m 125.9044,-26.8615 c 33.55,-19.35629 61.1415,-35.32877 61.3145,-35.49438 0.173,-0.16562 0.01,-1.92211 -0.3613,-3.90331 -0.6196,-3.30253 -0.9603,-3.60218 -4.0966,-3.60218 -4.0005,0 -10.3693,-2.42082 -11.9831,-4.55486 -0.9506,-1.25702 -10.6338,4.00044 -62,33.6626 -33.4804,19.33376 -61.0346,35.29242 -61.2316,35.46369 -0.1969,0.17128 1.1741,0.95158 3.0467,1.73401 4.8754,2.03708 8.8114,7.08335 8.8114,11.29697 0,3.44228 0.01,3.44618 2.75,2.01984 1.5125,-0.78601 30.2,-17.26608 63.75,-36.62238 z m 80.1042,-50.70362 c 0.3438,-1.83237 0.3096,-6.27726 -0.076,-9.87753 -0.5655,-5.28019 -1.2844,-7.21043 -3.7182,-9.98234 -1.6595,-1.89001 -3.5424,-3.43638 -4.1844,-3.43638 -1.6617,0 -19.165,17.79391 -18.3273,18.6316 0.3818,0.38183 4.0102,0.96546 8.0631,1.29696 9.2795,0.75901 10.6386,1.83084 10.6386,8.39005 v 5.07372 l 3.4896,-3.38225 c 2.0044,-1.94275 3.7556,-4.80018 4.1146,-6.71383 z m -28.4945,-19.85486 c 5.1647,-5.25723 9.3153,-9.82219 9.2238,-10.14434 -0.092,-0.32216 -31.1417,-18.51679 -69,-40.43253 l -68.8335,-39.846794 -9.2251,9.74113 c -5.0739,5.35763 -9.1239,10.38276 -9,11.16697 0.2468,1.56317 133.2293,78.918764 135.8348,79.014824 0.8854,0.0326 5.8354,-4.24202 11,-9.49926 z"
       id="path1-8"
       sodipodi:nodetypes="ssssscsssssssscsssssssssscsssscsssscsscsscccccssssscsssssscsssssssscssscscssss" />
    <path
       d="m 896.52175,159.72374 c -1.6617,0 -19.16582,17.79512 -18.32812,18.63281 0.3818,0.38183 4.01155,0.96538 8.06445,1.29688 9.2795,0.75901 10.63867,1.82946 10.63867,8.38867 v 5.07422 l 3.48828,-3.38281 c 2.0044,-1.94275 3.75624,-4.79925 4.11524,-6.7129 0.3438,-1.83237 0.30942,-6.27668 -0.0762,-9.87695 -0.5655,-5.28019 -1.28495,-7.21051 -3.71875,-9.98242 -1.6595,-1.89001 -3.54159,-3.4375 -4.18359,-3.4375 z"
       style="fill:#54575a;fill-opacity:1"
       id="path6-2" />
    <path
       d="m 724.85378,266.39952 c 7.92134,-0.11205 16.18172,0.0978 18.79297,0.71484 3.211,0.75877 3.25,0.83837 3.25,6.64844 v 5.88086 l -6.60547,2.04102 c -8.788,2.71434 -19.79493,2.65863 -28.14453,-0.14258 l -6.25,-2.09766 v -5.32422 c 0,-4.46167 0.35537,-5.51619 2.19727,-6.50195 1.2551,-0.67169 8.83842,-1.1067 16.75976,-1.21875 z"
       style="fill:#54575a;fill-opacity:1"
       id="path5-4" />
    <path
       d="m 747.39675,72.741316 -9.22461,9.74219 c -5.0739,5.35762 -9.1239,10.3818 -9,11.16601 0.2468,1.56317 133.22849,78.919574 135.83399,79.015634 0.8854,0.0326 5.8354,-4.24276 11,-9.5 5.1647,-5.25723 9.31611,-9.82239 9.2246,-10.14454 -0.092,-0.32216 -31.14169,-18.5159 -69,-40.43164 z"
       style="fill:#0075c9;fill-opacity:1"
       id="path4-5" />
    <path
       d="m 869.2698,186.16905 c -0.9506,-1.25702 -10.6338,3.99995 -62,33.66211 -33.4804,19.33376 -61.03542,35.29358 -61.23242,35.46485 -0.1969,0.17128 1.17427,0.95194 3.04687,1.73437 4.8754,2.03708 8.8125,7.08326 8.8125,11.29688 0,3.44228 0.01,3.44587 2.75,2.01953 1.5125,-0.78601 30.2,-17.26675 63.75,-36.62305 33.55,-19.35629 61.14145,-35.32853 61.31445,-35.49414 0.173,-0.16562 0.01,-1.92114 -0.36132,-3.90234 -0.6196,-3.30253 -0.96136,-3.60352 -4.09766,-3.60352 -4.0005,0 -10.36862,-2.42065 -11.98242,-4.55469 z"
       style="fill:#0075c9;fill-opacity:1"
       id="path3-5" />
    <path
       d="m 578.13113,180.72374 -5.86719,0.0586 c -3.2271,0.0317 -7.66719,0.3755 -9.86719,0.76563 l -4,0.71094 v 5.46875 5.46875 l 67.95508,39.25586 67.95508,39.2539 1.14062,-4.49219 c 0.6273,-2.47023 1.99742,-5.45333 3.04492,-6.6289 1.0474,-1.17557 3.43038,-2.78277 5.29688,-3.57227 l 3.39453,-1.43554 -2.89453,-1.75 c -1.5915,-0.96297 -30.62749,-17.80613 -64.52539,-37.42774 z"
       style="fill:#0075c9;fill-opacity:1"
       id="path2-1" />
    <path
       style="fill:#000000"
       d="m 1172.4793,293.36056 c -2.8485,-0.72489 -7.7182,-2.62709 -10.8215,-4.22712 -6.4492,-3.32514 -145.0666,-83.53559 -150.7062,-87.20558 -4.6224,-3.00808 -6.1471,-7.30259 -5.6066,-15.7917 0.738,-11.59027 5.3404,-14.9425 21.982,-16.01094 l 10.6686,-0.68495 71.1122,41.17746 c 39.1117,22.6476 72.1667,41.65792 73.4555,42.24516 2.0937,0.95395 9.122,-2.84899 65.9693,-35.69536 34.9942,-20.21968 63.6259,-37.04351 63.6259,-37.38629 0,-0.34277 -29.2885,-17.48331 -65.0857,-38.09008 -35.7971,-20.60677 -66.3971,-38.73898 -68,-40.29378 -2.3233,-2.253694 -2.9143,-3.693404 -2.9143,-7.099974 0,-5.23502 2.1201,-8.295376 15.2163,-21.965076 l 9.5141,-9.29805 4.8663,-0.0883 c 4.2461,-0.077 15.4002,6.5793 80.7176,44.37291 42.906,24.82602 77.3644,45.39475 79.3856,47.3863 5.6839,5.60076 7.4668,10.71818 7.6216,21.87547 0.1123,8.09993 -0.2093,10.29107 -2.0096,13.68854 -2.1915,4.13592 -10.422,12.45505 -12.3224,12.45505 -1.146,0 -142.0092,81.03779 -148.3903,85.36814 -2.1409,1.45281 -6.189,3.35715 -8.9958,4.23189 -6.8864,2.14607 -22.7195,2.70636 -29.2826,1.03623 z m 26.0739,-11.67644 6.6053,-2.04018 v -5.88036 c 0,-5.81007 -0.039,-5.88955 -3.25,-6.64831 -5.2225,-1.23401 -33.0415,-0.8405 -35.5517,0.50289 -1.8419,0.98576 -2.1983,2.03983 -2.1983,6.5015 v 5.32499 l 6.25,2.09681 c 8.3496,2.80121 19.3567,2.857 28.1447,0.14266 z m -41.7991,-21.09845 c 1.0474,-1.17557 3.4316,-2.78336 5.2981,-3.57286 l 3.3938,-1.43547 -2.8938,-1.75086 c -1.5915,-0.96297 -30.6284,-17.80491 -64.5263,-37.42652 l -61.6326,-35.67566 -5.8674,0.0576 c -3.2271,0.0317 -7.6674,0.37683 -9.8674,0.76696 l -4,0.70934 v 5.46958 5.46958 l 67.9552,39.25417 67.9551,39.25417 1.1404,-4.49133 c 0.6273,-2.47023 1.9974,-5.45316 3.0449,-6.62873 z m 125.9044,-26.8615 c 33.55,-19.35629 61.1415,-35.32877 61.3145,-35.49438 0.173,-0.16562 0.01,-1.92211 -0.3613,-3.90331 -0.6196,-3.30253 -0.9603,-3.60218 -4.0966,-3.60218 -4.0005,0 -10.3693,-2.42082 -11.9831,-4.55486 -0.9506,-1.25702 -10.6338,4.00044 -62,33.6626 -33.4804,19.33376 -61.0346,35.29242 -61.2316,35.46369 -0.1969,0.17128 1.1741,0.95158 3.0467,1.73401 4.8754,2.03708 8.8114,7.08335 8.8114,11.29697 0,3.44228 0.01,3.44618 2.75,2.01984 1.5125,-0.78601 30.2,-17.26608 63.75,-36.62238 z m 80.1042,-50.70362 c 0.3438,-1.83237 0.3096,-6.27726 -0.076,-9.87753 -0.5655,-5.28019 -1.2844,-7.21043 -3.7182,-9.98234 -1.6595,-1.89001 -3.5424,-3.43638 -4.1844,-3.43638 -1.6617,0 -19.165,17.79391 -18.3273,18.6316 0.3818,0.38183 4.0102,0.96546 8.0631,1.29696 9.2795,0.75901 10.6386,1.83084 10.6386,8.39005 v 5.07372 l 3.4896,-3.38225 c 2.0044,-1.94275 3.7556,-4.80018 4.1146,-6.71383 z m -28.4945,-19.85486 c 5.1647,-5.25723 9.3153,-9.82219 9.2238,-10.14434 -0.092,-0.32216 -31.1417,-18.51679 -69,-40.43253 l -68.8335,-39.84679 -9.2251,9.74113 c -5.0739,5.357626 -9.1239,10.382756 -9,11.166966 0.2468,1.56317 133.2293,78.918764 135.8348,79.014824 0.8854,0.0326 5.8354,-4.24202 11,-9.49926 z"
       id="path1-8-2"
       sodipodi:nodetypes="ssssscsssssssscsssssssssscsssscsssscsscsscccccssssscsssssscsssssssscssscscssss" />
    <path
       d="m 1354.784,159.72374 c -1.6617,0 -19.1659,17.79512 -18.3282,18.63281 0.3818,0.38183 4.0116,0.96538 8.0645,1.29688 9.2795,0.75901 10.6387,1.82946 10.6387,8.38867 v 5.07422 l 3.4882,-3.38281 c 2.0044,-1.94275 3.7563,-4.79925 4.1153,-6.7129 0.3438,-1.83237 0.3094,-6.27668 -0.076,-9.87695 -0.5655,-5.28019 -1.285,-7.21051 -3.7188,-9.98242 -1.6595,-1.89001 -3.5416,-3.4375 -4.1836,-3.4375 z"
       style="fill:#54575a;fill-opacity:1"
       id="path6-2-7" />
    <path
       d="m 1183.116,266.39952 c 7.9213,-0.11205 16.1817,0.0978 18.793,0.71484 3.211,0.75877 3.25,0.83837 3.25,6.64844 v 5.88086 l -6.6055,2.04102 c -8.788,2.71434 -19.7949,2.65863 -28.1445,-0.14258 l -6.25,-2.09766 v -5.32422 c 0,-4.46167 0.3553,-5.51619 2.1972,-6.50195 1.2551,-0.67169 8.8384,-1.1067 16.7598,-1.21875 z"
       style="fill:#54575a;fill-opacity:1"
       id="path5-4-6" />
    <path
       d="m 1205.659,72.74132 -9.2247,9.74219 c -5.0739,5.357616 -9.1239,10.381796 -9,11.166006 0.2468,1.56317 133.2285,78.919574 135.834,79.015634 0.8854,0.0326 5.8354,-4.24276 11,-9.5 5.1647,-5.25723 9.3161,-9.82239 9.2246,-10.14454 -0.092,-0.32216 -31.1417,-18.5159 -69,-40.43164 z"
       style="fill:#b3b3b3;fill-opacity:1"
       id="path4-5-1" />
    <path
       d="m 1327.532,186.16905 c -0.9506,-1.25702 -10.6338,3.99995 -62,33.66211 -33.4804,19.33376 -61.0354,35.29358 -61.2324,35.46485 -0.1969,0.17128 1.1743,0.95194 3.0469,1.73437 4.8754,2.03708 8.8125,7.08326 8.8125,11.29688 0,3.44228 0.01,3.44587 2.75,2.01953 1.5125,-0.78601 30.2,-17.26675 63.75,-36.62305 33.55,-19.35629 61.1414,-35.32853 61.3144,-35.49414 0.173,-0.16562 0.01,-1.92114 -0.3613,-3.90234 -0.6196,-3.30253 -0.9614,-3.60352 -4.0977,-3.60352 -4.0005,0 -10.3686,-2.42065 -11.9824,-4.55469 z"
       style="fill:#b3b3b3;fill-opacity:1"
       id="path3-5-4" />
    <path
       d="m 1036.3933,180.72374 -5.8672,0.0586 c -3.2271,0.0317 -7.6672,0.3755 -9.8672,0.76563 l -4,0.71094 v 5.46875 5.46875 l 67.9551,39.25586 67.9551,39.2539 1.1406,-4.49219 c 0.6273,-2.47023 1.9975,-5.45333 3.0449,-6.6289 1.0475,-1.17557 3.4304,-2.78277 5.2969,-3.57227 l 3.3946,-1.43554 -2.8946,-1.75 c -1.5915,-0.96297 -30.6275,-17.80613 -64.5254,-37.42774 z"
       style="fill:#b3b3b3;fill-opacity:1"
       id="path2-1-2" />
    <path
       style="fill:#000000"
       d="m 131.89535,475.93999 60.72731,34.52591 c 39.28954,22.33767 72.1667,41.65792 73.4555,42.24516 2.0937,0.95395 9.122,-2.84899 65.9693,-35.69536 34.9942,-20.21968 63.6259,-37.04351 63.6259,-37.38629 0,-0.34277 -29.2885,-17.48331 -65.0857,-38.09008 -35.7971,-20.60677 -66.96684,-39.81379 -66.96684,-39.81379 z m 124.81835,-81.92142 1.40668,-1.73913 c 2.18249,-3.62355 3.67308,-6.42924 16.76928,-20.09894 0,0 6.04635,-6.61496 8.7038,-8.06127 2.65745,-1.44631 5.48026,-1.8434 8.89941,-0.88397 3.41916,0.95943 12.17739,6.13819 77.49479,43.9318 42.906,24.82602 77.3644,45.39475 79.3856,47.3863 5.6839,5.60076 7.4668,10.71818 7.6216,21.87547 0.1123,8.09993 -0.2093,10.29107 -2.0096,13.68854 -2.1915,4.13592 -10.21202,11.24767 -12.3224,12.45505 -0.99471,0.56909 -142.0092,81.03779 -148.3903,85.36814 -2.1409,1.45281 -6.189,3.35715 -8.9958,4.23189 -6.8864,2.14607 -22.7195,2.70636 -29.2826,1.03623 v 5e-5 c -2.8485,-0.72489 -7.7182,-2.62709 -10.8215,-4.22712 -6.4492,-3.32514 -145.06661,-83.53559 -150.706207,-87.20558 -4.6224,-3.00808 -5.252391,-5.6655 -5.142283,-14.17109 0.113114,-8.73782 1.565947,-11.52078 3.98665,-13.60551 2.393378,-2.06119 11.42733,-2.7265 26.91352,-4.11133 z m 25.35436,187.51372 6.6053,-2.04018 v -5.88036 c 0,-5.81007 -0.039,-5.88955 -3.25,-6.64831 -5.2225,-1.23401 -33.0415,-0.8405 -35.5517,0.50289 -1.8419,0.98576 -2.1983,2.03983 -2.1983,6.5015 v 5.32499 l 6.25,2.09681 c 8.3496,2.80121 19.3567,2.857 28.1447,0.14266 z m -41.7991,-21.09845 c 1.0474,-1.17557 3.4316,-2.78336 5.2981,-3.57286 l 3.3938,-1.43547 -2.8938,-1.75086 c -1.5915,-0.96297 -30.6284,-17.80491 -64.5263,-37.42652 l -61.6326,-35.67566 -5.8674,0.0576 c -3.2271,0.0317 -7.6674,0.37683 -9.8674,0.76696 l -4.00001,0.70934 v 5.46958 5.46958 l 67.95521,39.25417 67.9551,39.25417 1.1404,-4.49133 c 0.6273,-2.47023 1.9974,-5.45316 3.0449,-6.62873 z m 125.9044,-26.8615 c 33.55,-19.35629 61.1415,-35.32877 61.3145,-35.49438 0.173,-0.16562 0.01,-1.92211 -0.3613,-3.90331 -0.6196,-3.30253 -0.9603,-3.60218 -4.0966,-3.60218 -4.0005,0 -10.3693,-2.42082 -11.9831,-4.55486 -0.9506,-1.25702 -10.6338,4.00044 -62,33.6626 -33.4804,19.33376 -61.0346,35.29242 -61.2316,35.46369 -0.1969,0.17128 1.1741,0.95158 3.0467,1.73401 4.8754,2.03708 8.8114,7.08335 8.8114,11.29697 0,3.44228 0.01,3.44618 2.75,2.01984 1.5125,-0.78601 30.2,-17.26608 63.75,-36.62238 z m 80.1042,-50.70362 c 0.3438,-1.83237 0.3096,-6.27726 -0.076,-9.87753 -0.5655,-5.28019 -1.2844,-7.21043 -3.7182,-9.98234 -1.6595,-1.89001 -3.5424,-3.43638 -4.1844,-3.43638 -1.6617,0 -19.165,17.79391 -18.3273,18.6316 0.3818,0.38183 4.0102,0.96546 8.0631,1.29696 9.2795,0.75901 10.6386,1.83084 10.6386,8.39005 v 5.07372 l 3.4896,-3.38225 c 2.0044,-1.94275 3.7556,-4.80018 4.1146,-6.71383 z m -28.4945,-19.85486 c 5.1647,-5.25723 9.3153,-9.82219 9.2238,-10.14434 -0.092,-0.32216 -31.1417,-18.51679 -69,-40.43253 l -68.8335,-39.84679 -9.2251,9.74113 c -5.0739,5.35763 -9.1239,10.38276 -9,11.16697 0.2468,1.56317 133.2293,78.91876 135.8348,79.01482 0.8854,0.0326 5.8354,-4.24202 11,-9.49926 z"
       id="path1-8-2-6"
       sodipodi:nodetypes="csssssccccszzsssssssssssssccssssscsssscsscsscccccssssscsssssscsssssssscssscscssssc" />
    <path
       d="m 263.62124,401.72559 -131.72656,74.21485 60.72851,34.52539 c 39.28954,22.33767 72.16628,41.65885 73.45508,42.24609 2.0937,0.95395 9.12145,-2.84894 65.96875,-35.69531 34.9942,-20.21968 63.62696,-37.04394 63.62696,-37.38672 0,-0.34277 -29.28874,-17.48308 -65.08594,-38.08985 -35.7971,-20.60677 -66.9668,-39.81445 -66.9668,-39.81445 z"
       style="fill:#b3b3b3;fill-opacity:1"
       id="path23" />
    <path
       d="m 438.29886,459.5719 c -1.6617,0 -19.1659,17.79512 -18.3282,18.63281 0.3818,0.38183 4.0116,0.96538 8.0645,1.29688 9.2795,0.75901 10.6387,1.82946 10.6387,8.38867 v 5.07422 l 3.4882,-3.38281 c 2.0044,-1.94275 3.7563,-4.79925 4.1153,-6.7129 0.3438,-1.83237 0.3094,-6.27668 -0.076,-9.87695 -0.5655,-5.28019 -1.285,-7.21051 -3.7188,-9.98242 -1.6595,-1.89001 -3.5416,-3.4375 -4.1836,-3.4375 z"
       style="fill:#54575a;fill-opacity:1"
       id="path6-2-7-8" />
    <path
       d="m 266.63086,566.24768 c 7.9213,-0.11205 16.1817,0.0978 18.793,0.71484 3.211,0.75877 3.25,0.83837 3.25,6.64844 v 5.88086 l -6.6055,2.04102 c -8.788,2.71434 -19.7949,2.65863 -28.1445,-0.14258 l -6.25,-2.09766 v -5.32422 c 0,-4.46167 0.3553,-5.51619 2.1972,-6.50195 1.2551,-0.67169 8.8384,-1.1067 16.7598,-1.21875 z"
       style="fill:#54575a;fill-opacity:1"
       id="path5-4-6-5" />
    <path
       d="m 289.17386,372.58948 -9.2247,9.74219 c -5.0739,5.35762 -9.1239,10.3818 -9,11.16601 0.2468,1.56317 133.2285,78.91957 135.834,79.01563 0.8854,0.0326 5.8354,-4.24276 11,-9.5 5.1647,-5.25723 9.3161,-9.82239 9.2246,-10.14454 -0.092,-0.32216 -31.1417,-18.5159 -69,-40.43164 z"
       style="fill:#d8292f;fill-opacity:1"
       id="path4-5-1-7" />
    <path
       d="m 411.04686,486.01721 c -0.9506,-1.25702 -10.6338,3.99995 -62,33.66211 -33.4804,19.33376 -61.0354,35.29358 -61.2324,35.46485 -0.1969,0.17128 1.1743,0.95194 3.0469,1.73437 4.8754,2.03708 8.8125,7.08326 8.8125,11.29688 0,3.44228 0.01,3.44587 2.75,2.01953 1.5125,-0.78601 30.2,-17.26675 63.75,-36.62305 33.55,-19.35629 61.1414,-35.32853 61.3144,-35.49414 0.173,-0.16562 0.01,-1.92114 -0.3613,-3.90234 -0.6196,-3.30253 -0.9614,-3.60352 -4.0977,-3.60352 -4.0005,0 -10.3686,-2.42065 -11.9824,-4.55469 z"
       style="fill:#d8292f;fill-opacity:1"
       id="path3-5-4-6" />
    <path
       d="m 119.90816,480.57191 -5.8672,0.0586 c -3.2271,0.0317 -7.6672,0.3755 -9.8672,0.76563 l -4.00001,0.71094 v 5.46875 5.46875 l 67.95511,39.25586 67.9551,39.2539 1.1406,-4.49219 c 0.6273,-2.47023 1.9975,-5.45333 3.0449,-6.6289 1.0475,-1.17557 3.4304,-2.78277 5.2969,-3.57227 l 3.3946,-1.43554 -2.8946,-1.75 c -1.5915,-0.96297 -30.6275,-17.80613 -64.5254,-37.42774 z"
       style="fill:#d8292f;fill-opacity:1"
       id="path2-1-2-1" />
    <path
       style="fill:#000000"
       d="m 1115.8756,442.48663 -62.3656,35.40133 60.7273,34.52591 c 39.2895,22.33767 72.1667,41.65792 73.4555,42.24516 2.0937,0.95395 60.7188,-33.31138 60.7188,-33.31138 z m 141.5514,73.55964 c 0,0 59.861,-34.2975 59.861,-34.46889 0,-0.34277 -29.6232,-16.91249 -65.0857,-38.09008 -35.3146,-21.08927 -66.6498,-40.03523 -66.6498,-40.03523 l -61.1641,34.33323 z m -79.0987,-120.07973 1.4067,-1.73913 c 2.1825,-3.62355 3.6731,-6.42924 16.7693,-20.09894 0,0 6.0463,-6.61496 8.7038,-8.06127 2.6574,-1.44631 5.4802,-1.8434 8.8994,-0.88397 3.4192,0.95943 12.1774,6.13819 77.4948,43.9318 42.906,24.82602 77.3644,45.39475 79.3856,47.3863 5.6839,5.60076 7.4668,10.71818 7.6216,21.87547 0.1123,8.09993 -0.2093,10.29107 -2.0096,13.68854 -2.1915,4.13592 -10.212,11.24767 -12.3224,12.45505 -0.9947,0.56909 -142.0092,81.03779 -148.3903,85.36814 -2.1409,1.45281 -6.189,3.35715 -8.9958,4.23189 -6.8864,2.14607 -22.7195,2.70636 -29.2826,1.03623 v 5e-5 c -2.8485,-0.72489 -7.7182,-2.62709 -10.8215,-4.22712 -6.4492,-3.32514 -145.0666,-83.53559 -150.7062,-87.20558 -4.6224,-3.00808 -5.2524,-5.6655 -5.1423,-14.17109 0.1131,-8.73782 1.5659,-11.52078 3.9866,-13.60551 2.3934,-2.06119 11.4274,-2.7265 26.9136,-4.11133 l 68.2446,-37.93476 7.7485,-4.36726 z m 25.3544,187.51372 6.6053,-2.04018 v -5.88036 c 0,-5.81007 -0.039,-5.88955 -3.25,-6.64831 -5.2225,-1.23401 -33.0415,-0.8405 -35.5517,0.50289 -1.8419,0.98576 -2.1983,2.03983 -2.1983,6.5015 v 5.32499 l 6.25,2.09681 c 8.3496,2.80121 19.3567,2.857 28.1447,0.14266 z m -41.7991,-21.09845 c 1.0474,-1.17557 3.4316,-2.78336 5.2981,-3.57286 l 3.3938,-1.43547 -2.8938,-1.75086 c -1.5915,-0.96297 -30.6284,-17.80491 -64.5263,-37.42652 l -61.6326,-35.67566 -5.8674,0.0576 c -3.2271,0.0317 -7.6674,0.37683 -9.8674,0.76696 l -4,0.70934 v 5.46958 5.46958 l 67.9552,39.25417 67.9551,39.25417 1.1404,-4.49133 c 0.6273,-2.47023 1.9974,-5.45316 3.0449,-6.62873 z m 125.9044,-26.8615 c 33.55,-19.35629 61.1415,-35.32877 61.3145,-35.49438 0.173,-0.16562 0.01,-1.92211 -0.3613,-3.90331 -0.6196,-3.30253 -0.9603,-3.60218 -4.0966,-3.60218 -4.0005,0 -10.3693,-2.42082 -11.9831,-4.55486 -0.9506,-1.25702 -10.6338,4.00044 -62,33.6626 -33.4804,19.33376 -61.0346,35.29242 -61.2316,35.46369 -0.1969,0.17128 1.1741,0.95158 3.0467,1.73401 4.8754,2.03708 8.8114,7.08335 8.8114,11.29697 0,3.44228 0.01,3.44618 2.75,2.01984 1.5125,-0.78601 30.2,-17.26608 63.75,-36.62238 z m 80.1042,-50.70362 c 0.3438,-1.83237 0.3096,-6.27726 -0.076,-9.87753 -0.5655,-5.28019 -1.2844,-7.21043 -3.7182,-9.98234 -1.6595,-1.89001 -3.5424,-3.43638 -4.1844,-3.43638 -1.6617,0 -19.165,17.79391 -18.3273,18.6316 0.3818,0.38183 4.0102,0.96546 8.0631,1.29696 9.2795,0.75901 10.6386,1.83084 10.6386,8.39005 v 5.07372 l 3.4896,-3.38225 c 2.0044,-1.94275 3.7556,-4.80018 4.1146,-6.71383 z m -28.4945,-19.85486 c 5.1647,-5.25723 9.3153,-9.82219 9.2238,-10.14434 -0.092,-0.32216 -31.1417,-18.51679 -69,-40.43253 l -68.8335,-39.84679 -9.2251,9.74113 c -5.0739,5.35763 -9.1239,10.38276 -9,11.16697 0.2468,1.56317 133.2293,78.91876 135.8348,79.01482 0.8854,0.0326 5.8354,-4.24202 11,-9.49926 z"
       id="path1-8-2-6-38-9-5"
       sodipodi:nodetypes="ccsscccsscccccszzsssssssssssssccccssssscsssscsscsscccccssssscsssssscsssssssscssscscssssc" />
    <path
       d="m 1185.5523,403.45161 -61.164,34.33398 133.039,78.25977 c 0,0 59.8614,-34.29736 59.8614,-34.46875 0,-0.34277 -29.6235,-16.91226 -65.086,-38.08985 -35.3146,-21.08927 -66.6504,-40.03515 -66.6504,-40.03515 z"
       style="fill:#ffbdbd;fill-opacity:1"
       id="path22" />
    <path
       d="m 1115.8746,442.48676 -62.3652,35.40039 60.7285,34.52735 c 39.2895,22.33767 72.1663,41.6569 73.4551,42.24414 2.0937,0.95395 60.7187,-33.31055 60.7187,-33.31055 z"
       style="fill:#ffbdbd;fill-opacity:1"
       id="path21" />
    <path
       d="m 1359.9135,461.51987 c -1.6617,0 -19.1659,17.79512 -18.3282,18.63281 0.3818,0.38183 4.0116,0.96538 8.0645,1.29688 9.2795,0.75901 10.6387,1.82946 10.6387,8.38867 v 5.07422 l 3.4882,-3.38281 c 2.0044,-1.94275 3.7563,-4.79925 4.1153,-6.7129 0.3438,-1.83237 0.3094,-6.27668 -0.076,-9.87695 -0.5655,-5.28019 -1.285,-7.21051 -3.7188,-9.98242 -1.6595,-1.89001 -3.5416,-3.4375 -4.1836,-3.4375 z"
       style="fill:#54575a;fill-opacity:1"
       id="path6-2-7-8-3-6-9" />
    <path
       d="m 1188.2455,568.19565 c 7.9213,-0.11205 16.1817,0.0978 18.793,0.71484 3.211,0.75877 3.25,0.83837 3.25,6.64844 v 5.88086 l -6.6055,2.04102 c -8.788,2.71434 -19.7949,2.65863 -28.1445,-0.14258 l -6.25,-2.09766 v -5.32422 c 0,-4.46167 0.3553,-5.51619 2.1972,-6.50195 1.2551,-0.67169 8.8384,-1.1067 16.7598,-1.21875 z"
       style="fill:#54575a;fill-opacity:1"
       id="path5-4-6-5-44-3-8" />
    <path
       d="m 1210.7885,374.53745 -9.2247,9.74219 c -5.0739,5.35762 -9.1239,10.3818 -9,11.16601 0.2468,1.56317 133.2285,78.91957 135.834,79.01563 0.8854,0.0326 5.8354,-4.24276 11,-9.5 5.1647,-5.25723 9.3161,-9.82239 9.2246,-10.14454 -0.092,-0.32216 -31.1417,-18.5159 -69,-40.43164 z"
       style="fill:#d8292f;fill-opacity:1"
       id="path4-5-1-7-6-7-4" />
    <path
       d="m 1332.6615,487.96518 c -0.9506,-1.25702 -10.6338,3.99995 -62,33.66211 -33.4804,19.33376 -61.0354,35.29358 -61.2324,35.46485 -0.1969,0.17128 1.1743,0.95194 3.0469,1.73437 4.8754,2.03708 8.8125,7.08326 8.8125,11.29688 0,3.44228 0.01,3.44587 2.75,2.01953 1.5125,-0.78601 30.2,-17.26675 63.75,-36.62305 33.55,-19.35629 61.1414,-35.32853 61.3144,-35.49414 0.173,-0.16562 0.01,-1.92114 -0.3613,-3.90234 -0.6196,-3.30253 -0.9614,-3.60352 -4.0977,-3.60352 -4.0005,0 -10.3686,-2.42065 -11.9824,-4.55469 z"
       style="fill:#d8292f;fill-opacity:1"
       id="path3-5-4-6-0-8-0" />
    <path
       d="m 1041.5228,482.51988 -5.8672,0.0586 c -3.2271,0.0317 -7.6672,0.3755 -9.8672,0.76563 l -4,0.71094 v 5.46875 5.46875 l 67.9551,39.25586 67.9551,39.2539 1.1406,-4.49219 c 0.6273,-2.47023 1.9975,-5.45333 3.0449,-6.6289 1.0475,-1.17557 3.4304,-2.78277 5.2969,-3.57227 l 3.3946,-1.43554 -2.8946,-1.75 c -1.5915,-0.96297 -30.6275,-17.80613 -64.5254,-37.42774 z"
       style="fill:#d8292f;fill-opacity:1"
       id="path2-1-2-1-6-8-7" />
    <path
       style="fill:#000000"
       d="m 591.28042,475.39516 60.72731,34.52591 c 39.28954,22.33767 72.1667,41.65792 73.4555,42.24516 2.0937,0.95395 9.122,-2.84899 65.9693,-35.69536 34.9942,-20.21968 63.6259,-37.04351 63.6259,-37.38629 0,-0.34277 -29.2885,-17.48331 -65.0857,-38.09008 -35.7971,-20.60677 -66.96684,-39.81379 -66.96684,-39.81379 z m 124.81835,-81.92142 1.40668,-1.73913 c 2.18249,-3.62355 3.67308,-6.42924 16.76928,-20.09894 0,0 6.04635,-6.61496 8.7038,-8.06127 2.65745,-1.44631 5.48026,-1.8434 8.89941,-0.88397 3.41916,0.95943 12.17739,6.13819 77.49479,43.9318 42.906,24.82602 77.3644,45.39475 79.3856,47.3863 5.6839,5.60076 7.4668,10.71818 7.6216,21.87547 0.1123,8.09993 -0.2093,10.29107 -2.0096,13.68854 -2.1915,4.13592 -10.21202,11.24767 -12.3224,12.45505 -0.99471,0.56909 -142.0092,81.03779 -148.3903,85.36814 -2.1409,1.45281 -6.189,3.35715 -8.9958,4.23189 -6.8864,2.14607 -22.7195,2.70636 -29.2826,1.03623 v 5e-5 c -2.8485,-0.72489 -7.7182,-2.62709 -10.8215,-4.22712 -6.4492,-3.32514 -145.0666,-83.53559 -150.7062,-87.20558 -4.6224,-3.00808 -5.25239,-5.6655 -5.14229,-14.17109 0.11312,-8.73782 1.56595,-11.52078 3.98665,-13.60551 2.39338,-2.06119 11.42733,-2.7265 26.91352,-4.11133 z m 25.35436,187.51372 6.6053,-2.04018 v -5.88036 c 0,-5.81007 -0.039,-5.88955 -3.25,-6.64831 -5.2225,-1.23401 -33.0415,-0.8405 -35.5517,0.50289 -1.8419,0.98576 -2.1983,2.03983 -2.1983,6.5015 v 5.32499 l 6.25,2.09681 c 8.3496,2.80121 19.3567,2.857 28.1447,0.14266 z m -41.7991,-21.09845 c 1.0474,-1.17557 3.4316,-2.78336 5.2981,-3.57286 l 3.3938,-1.43547 -2.8938,-1.75086 c -1.5915,-0.96297 -30.6284,-17.80491 -64.5263,-37.42652 l -61.6326,-35.67566 -5.8674,0.0576 c -3.2271,0.0317 -7.6674,0.37683 -9.8674,0.76696 l -4,0.70934 v 5.46958 5.46958 l 67.9552,39.25417 67.9551,39.25417 1.1404,-4.49133 c 0.6273,-2.47023 1.9974,-5.45316 3.0449,-6.62873 z m 125.9044,-26.8615 c 33.55,-19.35629 61.1415,-35.32877 61.3145,-35.49438 0.173,-0.16562 0.01,-1.92211 -0.3613,-3.90331 -0.6196,-3.30253 -0.9603,-3.60218 -4.0966,-3.60218 -4.0005,0 -10.3693,-2.42082 -11.9831,-4.55486 -0.9506,-1.25702 -10.6338,4.00044 -62,33.6626 -33.4804,19.33376 -61.0346,35.29242 -61.2316,35.46369 -0.1969,0.17128 1.1741,0.95158 3.0467,1.73401 4.8754,2.03708 8.8114,7.08335 8.8114,11.29697 0,3.44228 0.01,3.44618 2.75,2.01984 1.5125,-0.78601 30.2,-17.26608 63.75,-36.62238 z m 80.1042,-50.70362 c 0.3438,-1.83237 0.3096,-6.27726 -0.076,-9.87753 -0.5655,-5.28019 -1.2844,-7.21043 -3.7182,-9.98234 -1.6595,-1.89001 -3.5424,-3.43638 -4.1844,-3.43638 -1.6617,0 -19.165,17.79391 -18.3273,18.6316 0.3818,0.38183 4.0102,0.96546 8.0631,1.29696 9.2795,0.75901 10.6386,1.83084 10.6386,8.39005 v 5.07372 l 3.4896,-3.38225 c 2.0044,-1.94275 3.7556,-4.80018 4.1146,-6.71383 z m -28.4945,-19.85486 c 5.1647,-5.25723 9.3153,-9.82219 9.2238,-10.14434 -0.092,-0.32216 -31.1417,-18.51679 -69,-40.43253 l -68.8335,-39.84679 -9.2251,9.74113 c -5.0739,5.35763 -9.1239,10.38276 -9,11.16697 0.2468,1.56317 133.2293,78.91876 135.8348,79.01482 0.8854,0.0326 5.8354,-4.24202 11,-9.49926 z"
       id="path1-8-2-6-3"
       sodipodi:nodetypes="csssssccccszzsssssssssssssccssssscsssscsscsscccccssssscsssssscsssssssscssscscssssc" />
    <path
       d="m 723.00601,401.18067 -131.72657,74.21484 60.72852,34.52539 c 39.28954,22.33767 72.16628,41.65886 73.45508,42.2461 2.0937,0.95395 9.12145,-2.84894 65.96875,-35.69531 34.9942,-20.21968 63.62695,-37.04394 63.62695,-37.38672 0,-0.34277 -29.28874,-17.48308 -65.08594,-38.08985 -35.7971,-20.60677 -66.96679,-39.81445 -66.96679,-39.81445 z"
       style="fill:#ffbdbd;fill-opacity:1"
       id="path24" />
    <path
       d="m 897.68393,459.02708 c -1.6617,0 -19.1659,17.79512 -18.3282,18.63281 0.3818,0.38183 4.0116,0.96538 8.0645,1.29688 9.2795,0.75901 10.6387,1.82946 10.6387,8.38867 v 5.07422 l 3.4882,-3.38281 c 2.0044,-1.94275 3.7563,-4.79925 4.1153,-6.7129 0.3438,-1.83237 0.3094,-6.27668 -0.076,-9.87695 -0.5655,-5.28019 -1.285,-7.21051 -3.7188,-9.98242 -1.6595,-1.89001 -3.5416,-3.4375 -4.1836,-3.4375 z"
       style="fill:#54575a;fill-opacity:1"
       id="path6-2-7-8-7" />
    <path
       d="m 726.01593,565.70286 c 7.9213,-0.11205 16.1817,0.0978 18.793,0.71484 3.211,0.75877 3.25,0.83837 3.25,6.64844 v 5.88086 l -6.6055,2.04102 c -8.788,2.71434 -19.7949,2.65863 -28.1445,-0.14258 l -6.25,-2.09766 v -5.32422 c 0,-4.46167 0.3553,-5.51619 2.1972,-6.50195 1.2551,-0.67169 8.8384,-1.1067 16.7598,-1.21875 z"
       style="fill:#54575a;fill-opacity:1"
       id="path5-4-6-5-4" />
    <path
       d="m 748.55893,372.04466 -9.2247,9.74219 c -5.0739,5.35762 -9.1239,10.3818 -9,11.16601 0.2468,1.56317 133.2285,78.91957 135.834,79.01563 0.8854,0.0326 5.8354,-4.24276 11,-9.5 5.1647,-5.25723 9.3161,-9.82239 9.2246,-10.14454 -0.092,-0.32216 -31.1417,-18.5159 -69,-40.43164 z"
       style="fill:#d8292f;fill-opacity:1"
       id="path4-5-1-7-2" />
    <path
       d="m 870.43193,485.47239 c -0.9506,-1.25702 -10.6338,3.99995 -62,33.66211 -33.4804,19.33376 -61.0354,35.29358 -61.2324,35.46485 -0.1969,0.17128 1.1743,0.95194 3.0469,1.73437 4.8754,2.03708 8.8125,7.08326 8.8125,11.29688 0,3.44228 0.01,3.44587 2.75,2.01953 1.5125,-0.78601 30.2,-17.26675 63.75,-36.62305 33.55,-19.35629 61.1414,-35.32853 61.3144,-35.49414 0.173,-0.16562 0.01,-1.92114 -0.3613,-3.90234 -0.6196,-3.30253 -0.9614,-3.60352 -4.0977,-3.60352 -4.0005,0 -10.3686,-2.42065 -11.9824,-4.55469 z"
       style="fill:#d8292f;fill-opacity:1"
       id="path3-5-4-6-7" />
    <path
       d="m 579.29323,480.02708 -5.8672,0.0586 c -3.2271,0.0317 -7.6672,0.3755 -9.8672,0.76563 l -4,0.71094 v 5.46875 5.46875 l 67.9551,39.25586 67.9551,39.2539 1.1406,-4.49219 c 0.6273,-2.47023 1.9975,-5.45333 3.0449,-6.6289 1.0475,-1.17557 3.4304,-2.78277 5.2969,-3.57227 l 3.3946,-1.43554 -2.8946,-1.75 c -1.5915,-0.96297 -30.6275,-17.80613 -64.5254,-37.42774 z"
       style="fill:#d8292f;fill-opacity:1"
       id="path2-1-2-1-7" />
    <path
       style="fill:#000000"
       d="m 132.53758,773.26528 60.72731,34.52591 c 39.28954,22.33767 72.1667,41.65792 73.4555,42.24516 2.0937,0.95395 9.122,-2.84899 65.9693,-35.69536 34.9942,-20.21968 63.6259,-37.04351 63.6259,-37.38629 0,-0.34277 -29.2885,-17.48331 -65.0857,-38.09008 -35.7971,-20.60677 -66.96684,-39.81379 -66.96684,-39.81379 z m 124.81835,-81.92142 1.40668,-1.73913 c 2.18249,-3.62355 3.67308,-6.42924 16.76928,-20.09894 0,0 6.04635,-6.61496 8.7038,-8.06127 2.65745,-1.44631 5.48026,-1.8434 8.89941,-0.88397 3.41916,0.95943 12.17739,6.13819 77.49479,43.9318 42.906,24.82602 77.3644,45.39475 79.3856,47.3863 5.6839,5.60076 7.4668,10.71818 7.6216,21.87547 0.1123,8.09993 -0.2093,10.29107 -2.0096,13.68854 -2.1915,4.13592 -10.21202,11.24767 -12.3224,12.45505 -0.99471,0.56909 -142.0092,81.03779 -148.3903,85.36814 -2.1409,1.45281 -6.189,3.35715 -8.9958,4.23189 -6.8864,2.14607 -22.7195,2.70636 -29.2826,1.03623 v 5e-5 c -2.8485,-0.72489 -7.7182,-2.62709 -10.8215,-4.22712 -6.4492,-3.32514 -145.06661,-83.53559 -150.706212,-87.20558 -4.6224,-3.00808 -5.25239,-5.6655 -5.14228,-14.17109 0.11311,-8.73782 1.56595,-11.52078 3.98665,-13.60551 2.39338,-2.06119 11.427332,-2.7265 26.913522,-4.11133 z m 25.35436,187.51372 6.6053,-2.04018 v -5.88036 c 0,-5.81007 -0.039,-5.88955 -3.25,-6.64831 -5.2225,-1.23401 -33.0415,-0.8405 -35.5517,0.50289 -1.8419,0.98576 -2.1983,2.03983 -2.1983,6.5015 v 5.32499 l 6.25,2.09681 c 8.3496,2.80121 19.3567,2.857 28.1447,0.14266 z m -41.7991,-21.09845 c 1.0474,-1.17557 3.4316,-2.78336 5.2981,-3.57286 l 3.3938,-1.43547 -2.8938,-1.75086 c -1.5915,-0.96297 -30.6284,-17.80491 -64.5263,-37.42652 l -61.6326,-35.67566 -5.8674,0.0576 c -3.2271,0.0317 -7.6674,0.37683 -9.8674,0.76696 l -4.00001,0.70934 v 5.46958 5.46958 l 67.95521,39.25417 67.9551,39.25417 1.1404,-4.49133 c 0.6273,-2.47023 1.9974,-5.45316 3.0449,-6.62873 z m 125.9044,-26.8615 c 33.55,-19.35629 61.1415,-35.32877 61.3145,-35.49438 0.173,-0.16562 0.01,-1.92211 -0.3613,-3.90331 -0.6196,-3.30253 -0.9603,-3.60218 -4.0966,-3.60218 -4.0005,0 -10.3693,-2.42082 -11.9831,-4.55486 -0.9506,-1.25702 -10.6338,4.00044 -62,33.6626 -33.4804,19.33376 -61.0346,35.29242 -61.2316,35.46369 -0.1969,0.17128 1.1741,0.95158 3.0467,1.73401 4.8754,2.03708 8.8114,7.08335 8.8114,11.29697 0,3.44228 0.01,3.44618 2.75,2.01984 1.5125,-0.78601 30.2,-17.26608 63.75,-36.62238 z m 80.1042,-50.70362 c 0.3438,-1.83237 0.3096,-6.27726 -0.076,-9.87753 -0.5655,-5.28019 -1.2844,-7.21043 -3.7182,-9.98234 -1.6595,-1.89001 -3.5424,-3.43638 -4.1844,-3.43638 -1.6617,0 -19.165,17.79391 -18.3273,18.6316 0.3818,0.38183 4.0102,0.96546 8.0631,1.29696 9.2795,0.75901 10.6386,1.83084 10.6386,8.39005 v 5.07372 l 3.4896,-3.38225 c 2.0044,-1.94275 3.7556,-4.80018 4.1146,-6.71383 z m -28.4945,-19.85486 c 5.1647,-5.25723 9.3153,-9.82219 9.2238,-10.14434 -0.092,-0.32216 -31.1417,-18.51679 -69,-40.43253 l -68.8335,-39.84679 -9.2251,9.74113 c -5.0739,5.35763 -9.1239,10.38276 -9,11.16697 0.2468,1.56317 133.2293,78.91876 135.8348,79.01482 0.8854,0.0326 5.8354,-4.24202 11,-9.49926 z"
       id="path1-8-2-6-5"
       sodipodi:nodetypes="csssssccccszzsssssssssssssccssssscsssscsscsscccccssssscsssssscsssssssscssscscssssc" />
    <path
       d="m 264.26347,699.05088 -131.72656,74.21485 60.72851,34.52539 c 39.28954,22.33767 72.16628,41.65885 73.45508,42.24609 2.0937,0.95395 9.12145,-2.84894 65.96875,-35.69531 34.9942,-20.21968 63.62696,-37.04394 63.62696,-37.38672 0,-0.34277 -29.28874,-17.48308 -65.08594,-38.08985 -35.7971,-20.60677 -66.9668,-39.81445 -66.9668,-39.81445 z"
       style="fill:#b3b3b3;fill-opacity:1"
       id="path23-4" />
    <path
       d="m 438.94109,756.89719 c -1.6617,0 -19.1659,17.79512 -18.3282,18.63281 0.3818,0.38183 4.0116,0.96538 8.0645,1.29688 9.2795,0.75901 10.6387,1.82946 10.6387,8.38867 v 5.07422 l 3.4882,-3.38281 c 2.0044,-1.94275 3.7563,-4.79925 4.1153,-6.7129 0.3438,-1.83237 0.3094,-6.27668 -0.076,-9.87695 -0.5655,-5.28019 -1.285,-7.21051 -3.7188,-9.98242 -1.6595,-1.89001 -3.5416,-3.4375 -4.1836,-3.4375 z"
       style="fill:#54575a;fill-opacity:1"
       id="path6-2-7-8-2" />
    <path
       d="m 267.27309,863.57297 c 7.9213,-0.11205 16.1817,0.0978 18.793,0.71484 3.211,0.75877 3.25,0.83837 3.25,6.64844 v 5.88086 l -6.6055,2.04102 c -8.788,2.71434 -19.7949,2.65863 -28.1445,-0.14258 l -6.25,-2.09766 v -5.32422 c 0,-4.46167 0.3553,-5.51619 2.1972,-6.50195 1.2551,-0.67169 8.8384,-1.1067 16.7598,-1.21875 z"
       style="fill:#54575a;fill-opacity:1"
       id="path5-4-6-5-0" />
    <path
       d="m 289.81609,669.91477 -9.2247,9.74219 c -5.0739,5.35762 -9.1239,10.3818 -9,11.16601 0.2468,1.56317 133.2285,78.91957 135.834,79.01563 0.8854,0.0326 5.8354,-4.24276 11,-9.5 5.1647,-5.25723 9.3161,-9.82239 9.2246,-10.14454 -0.092,-0.32216 -31.1417,-18.5159 -69,-40.43164 z"
       style="fill:#0075c9;fill-opacity:1"
       id="path4-5-1-7-9" />
    <path
       d="m 411.68909,783.3425 c -0.9506,-1.25702 -10.6338,3.99995 -62,33.66211 -33.4804,19.33376 -61.0354,35.29358 -61.2324,35.46485 -0.1969,0.17128 1.1743,0.95194 3.0469,1.73437 4.8754,2.03708 8.8125,7.08326 8.8125,11.29688 0,3.44228 0.01,3.44587 2.75,2.01953 1.5125,-0.78601 30.2,-17.26675 63.75,-36.62305 33.55,-19.35629 61.1414,-35.32853 61.3144,-35.49414 0.173,-0.16562 0.01,-1.92114 -0.3613,-3.90234 -0.6196,-3.30253 -0.9614,-3.60352 -4.0977,-3.60352 -4.0005,0 -10.3686,-2.42065 -11.9824,-4.55469 z"
       style="fill:#0075c9;fill-opacity:1"
       id="path3-5-4-6-73" />
    <path
       d="m 120.55039,777.8972 -5.8672,0.0586 c -3.2271,0.0317 -7.6672,0.3755 -9.8672,0.76563 l -4.00001,0.71094 v 5.46875 5.46875 l 67.95511,39.25586 67.9551,39.2539 1.1406,-4.49219 c 0.6273,-2.47023 1.9975,-5.45333 3.0449,-6.6289 1.0475,-1.17557 3.4304,-2.78277 5.2969,-3.57227 l 3.3946,-1.43554 -2.8946,-1.75 c -1.5915,-0.96297 -30.6275,-17.80613 -64.5254,-37.42774 z"
       style="fill:#0075c9;fill-opacity:1"
       id="path2-1-2-1-72" />
    <path
       style="fill:#000000"
       d="m 1117.4085,740.91785 -62.3656,35.40133 60.7273,34.52591 c 39.2895,22.33767 72.1667,41.65792 73.4555,42.24516 2.0937,0.95395 60.7188,-33.31138 60.7188,-33.31138 z m 141.5514,73.55964 c 0,0 59.861,-34.2975 59.861,-34.46889 0,-0.34277 -29.6232,-16.91249 -65.0857,-38.09008 -35.3146,-21.08927 -66.6498,-40.03523 -66.6498,-40.03523 l -61.1641,34.33323 z m -79.0987,-120.07973 1.4067,-1.73913 c 2.1825,-3.62355 3.6731,-6.42924 16.7693,-20.09894 0,0 6.0463,-6.61496 8.7038,-8.06127 2.6574,-1.44631 5.4802,-1.8434 8.8994,-0.88397 3.4192,0.95943 12.1774,6.13819 77.4948,43.9318 42.906,24.82602 77.3644,45.39475 79.3856,47.3863 5.6839,5.60076 7.4668,10.71818 7.6216,21.87547 0.1123,8.09993 -0.2093,10.29107 -2.0096,13.68854 -2.1915,4.13592 -10.212,11.24767 -12.3224,12.45505 -0.9947,0.56909 -142.0092,81.03779 -148.3903,85.36814 -2.1409,1.45281 -6.189,3.35715 -8.9958,4.23189 -6.8864,2.14607 -22.7195,2.70636 -29.2826,1.03623 v 5e-5 c -2.8485,-0.72489 -7.7182,-2.62709 -10.8215,-4.22712 -6.4492,-3.32514 -145.0666,-83.53559 -150.7062,-87.20558 -4.6224,-3.00808 -5.2524,-5.6655 -5.1423,-14.17109 0.1131,-8.73782 1.5659,-11.52078 3.9866,-13.60551 2.3934,-2.06119 11.4274,-2.7265 26.9136,-4.11133 l 68.2446,-37.93476 7.7485,-4.36726 z m 25.3544,187.51372 6.6053,-2.04018 v -5.88036 c 0,-5.81007 -0.039,-5.88955 -3.25,-6.64831 -5.2225,-1.23401 -33.0415,-0.8405 -35.5517,0.50289 -1.8419,0.98576 -2.1983,2.03983 -2.1983,6.5015 v 5.32499 l 6.25,2.09681 c 8.3496,2.80121 19.3567,2.857 28.1447,0.14266 z m -41.7991,-21.09845 c 1.0474,-1.17557 3.4316,-2.78336 5.2981,-3.57286 l 3.3938,-1.43547 -2.8938,-1.75086 c -1.5915,-0.96297 -30.6284,-17.80491 -64.5263,-37.42652 l -61.6326,-35.67566 -5.8674,0.0576 c -3.2271,0.0317 -7.6674,0.37683 -9.8674,0.76696 l -4,0.70934 v 5.46958 5.46958 l 67.9552,39.25417 67.9551,39.25417 1.1404,-4.49133 c 0.6273,-2.47023 1.9974,-5.45316 3.0449,-6.62873 z m 125.9044,-26.8615 c 33.55,-19.35629 61.1415,-35.32877 61.3145,-35.49438 0.173,-0.16562 0.01,-1.92211 -0.3613,-3.90331 -0.6196,-3.30253 -0.9603,-3.60218 -4.0966,-3.60218 -4.0005,0 -10.3693,-2.42082 -11.9831,-4.55486 -0.9506,-1.25702 -10.6338,4.00044 -62,33.6626 -33.4804,19.33376 -61.0346,35.29242 -61.2316,35.46369 -0.1969,0.17128 1.1741,0.95158 3.0467,1.73401 4.8754,2.03708 8.8114,7.08335 8.8114,11.29697 0,3.44228 0.01,3.44618 2.75,2.01984 1.5125,-0.78601 30.2,-17.26608 63.75,-36.62238 z m 80.1042,-50.70362 c 0.3438,-1.83237 0.3096,-6.27726 -0.076,-9.87753 -0.5655,-5.28019 -1.2844,-7.21043 -3.7182,-9.98234 -1.6595,-1.89001 -3.5424,-3.43638 -4.1844,-3.43638 -1.6617,0 -19.165,17.79391 -18.3273,18.6316 0.3818,0.38183 4.0102,0.96546 8.0631,1.29696 9.2795,0.75901 10.6386,1.83084 10.6386,8.39005 v 5.07372 l 3.4896,-3.38225 c 2.0044,-1.94275 3.7556,-4.80018 4.1146,-6.71383 z m -28.4945,-19.85486 c 5.1647,-5.25723 9.3153,-9.82219 9.2238,-10.14434 -0.092,-0.32216 -31.1417,-18.51679 -69,-40.43253 l -68.8335,-39.84679 -9.2251,9.74113 c -5.0739,5.35763 -9.1239,10.38276 -9,11.16697 0.2468,1.56317 133.2293,78.91876 135.8348,79.01482 0.8854,0.0326 5.8354,-4.24202 11,-9.49926 z"
       id="path1-8-2-6-38-9-5-6"
       sodipodi:nodetypes="ccsscccsscccccszzsssssssssssssccccssssscsssscsscsscccccssssscsssssscsssssssscssscscssssc" />
    <path
       d="m 1187.0852,701.88283 -61.164,34.33398 133.039,78.25977 c 0,0 59.8614,-34.29736 59.8614,-34.46875 0,-0.34277 -29.6235,-16.91226 -65.086,-38.08985 -35.3146,-21.08927 -66.6504,-40.03515 -66.6504,-40.03515 z"
       style="fill:#a9ccff;fill-opacity:1"
       id="path22-0" />
    <path
       d="m 1117.4075,740.91798 -62.3652,35.40039 60.7285,34.52735 c 39.2895,22.33767 72.1663,41.6569 73.4551,42.24414 2.0937,0.95395 60.7187,-33.31055 60.7187,-33.31055 z"
       style="fill:#a9ccff;fill-opacity:1"
       id="path21-1" />
    <path
       d="m 1361.4464,759.95109 c -1.6617,0 -19.1659,17.79512 -18.3282,18.63281 0.3818,0.38183 4.0116,0.96538 8.0645,1.29688 9.2795,0.75901 10.6387,1.82946 10.6387,8.38867 v 5.07422 l 3.4882,-3.38281 c 2.0044,-1.94275 3.7563,-4.79925 4.1153,-6.7129 0.3438,-1.83237 0.3094,-6.27668 -0.076,-9.87695 -0.5655,-5.28019 -1.285,-7.21051 -3.7188,-9.98242 -1.6595,-1.89001 -3.5416,-3.4375 -4.1836,-3.4375 z"
       style="fill:#54575a;fill-opacity:1"
       id="path6-2-7-8-3-6-9-6" />
    <path
       d="m 1189.7784,866.62687 c 7.9213,-0.11205 16.1817,0.0978 18.793,0.71484 3.211,0.75877 3.25,0.83837 3.25,6.64844 v 5.88086 l -6.6055,2.04102 c -8.788,2.71434 -19.7949,2.65863 -28.1445,-0.14258 l -6.25,-2.09766 v -5.32422 c 0,-4.46167 0.3553,-5.51619 2.1972,-6.50195 1.2551,-0.67169 8.8384,-1.1067 16.7598,-1.21875 z"
       style="fill:#54575a;fill-opacity:1"
       id="path5-4-6-5-44-3-8-5" />
    <path
       d="m 1212.3214,672.96867 -9.2247,9.74219 c -5.0739,5.35762 -9.1239,10.3818 -9,11.16601 0.2468,1.56317 133.2285,78.91957 135.834,79.01563 0.8854,0.0326 5.8354,-4.24276 11,-9.5 5.1647,-5.25723 9.3161,-9.82239 9.2246,-10.14454 -0.092,-0.32216 -31.1417,-18.5159 -69,-40.43164 z"
       style="fill:#0075c9;fill-opacity:1"
       id="path4-5-1-7-6-7-4-7" />
    <path
       d="m 1334.1944,786.3964 c -0.9506,-1.25702 -10.6338,3.99995 -62,33.66211 -33.4804,19.33376 -61.0354,35.29358 -61.2324,35.46485 -0.1969,0.17128 1.1743,0.95194 3.0469,1.73437 4.8754,2.03708 8.8125,7.08326 8.8125,11.29688 0,3.44228 0.01,3.44587 2.75,2.01953 1.5125,-0.78601 30.2,-17.26675 63.75,-36.62305 33.55,-19.35629 61.1414,-35.32853 61.3144,-35.49414 0.173,-0.16562 0.01,-1.92114 -0.3613,-3.90234 -0.6196,-3.30253 -0.9614,-3.60352 -4.0977,-3.60352 -4.0005,0 -10.3686,-2.42065 -11.9824,-4.55469 z"
       style="fill:#0075c9;fill-opacity:1"
       id="path3-5-4-6-0-8-0-5" />
    <path
       d="m 1043.0557,780.9511 -5.8672,0.0586 c -3.2271,0.0317 -7.6672,0.3755 -9.8672,0.76563 l -4,0.71094 v 5.46875 5.46875 l 67.9551,39.25586 67.9551,39.2539 1.1406,-4.49219 c 0.6273,-2.47023 1.9975,-5.45333 3.0449,-6.6289 1.0475,-1.17557 3.4304,-2.78277 5.2969,-3.57227 l 3.3946,-1.43554 -2.8946,-1.75 c -1.5915,-0.96297 -30.6275,-17.80613 -64.5254,-37.42774 z"
       style="fill:#0075c9;fill-opacity:1"
       id="path2-1-2-1-6-8-7-4" />
    <path
       style="fill:#000000"
       d="m 592.82021,773.94766 60.72731,34.52591 c 39.28954,22.33767 72.1667,41.65792 73.4555,42.24516 2.0937,0.95395 9.122,-2.84899 65.9693,-35.69536 34.9942,-20.21968 63.6259,-37.04351 63.6259,-37.38629 0,-0.34277 -29.2885,-17.48331 -65.0857,-38.09008 -35.7971,-20.60677 -66.96684,-39.81379 -66.96684,-39.81379 z m 124.81835,-81.92142 1.40668,-1.73913 c 2.18249,-3.62355 3.67308,-6.42924 16.76928,-20.09894 0,0 6.04635,-6.61496 8.7038,-8.06127 2.65745,-1.44631 5.48026,-1.8434 8.89941,-0.88397 3.41916,0.95943 12.17739,6.13819 77.49479,43.9318 42.906,24.82602 77.3644,45.39475 79.3856,47.3863 5.6839,5.60076 7.4668,10.71818 7.6216,21.87547 0.1123,8.09993 -0.2093,10.29107 -2.0096,13.68854 -2.1915,4.13592 -10.21202,11.24767 -12.3224,12.45505 -0.99471,0.56909 -142.0092,81.03779 -148.3903,85.36814 -2.1409,1.45281 -6.189,3.35715 -8.9958,4.23189 -6.8864,2.14607 -22.7195,2.70636 -29.2826,1.03623 v 5e-5 c -2.8485,-0.72489 -7.7182,-2.62709 -10.8215,-4.22712 -6.4492,-3.32514 -145.0666,-83.53559 -150.7062,-87.20558 -4.6224,-3.00808 -5.25239,-5.6655 -5.14229,-14.17109 0.11312,-8.73782 1.56595,-11.52078 3.98665,-13.60551 2.39338,-2.06119 11.42733,-2.7265 26.91352,-4.11133 z m 25.35436,187.51372 6.6053,-2.04018 v -5.88036 c 0,-5.81007 -0.039,-5.88955 -3.25,-6.64831 -5.2225,-1.23401 -33.0415,-0.8405 -35.5517,0.50289 -1.8419,0.98576 -2.1983,2.03983 -2.1983,6.5015 v 5.32499 l 6.25,2.09681 c 8.3496,2.80121 19.3567,2.857 28.1447,0.14266 z m -41.7991,-21.09845 c 1.0474,-1.17557 3.4316,-2.78336 5.2981,-3.57286 l 3.3938,-1.43547 -2.8938,-1.75086 c -1.5915,-0.96297 -30.6284,-17.80491 -64.5263,-37.42652 l -61.6326,-35.67566 -5.8674,0.0576 c -3.2271,0.0317 -7.6674,0.37683 -9.8674,0.76696 l -4,0.70934 v 5.46958 5.46958 l 67.9552,39.25417 67.9551,39.25417 1.1404,-4.49133 c 0.6273,-2.47023 1.9974,-5.45316 3.0449,-6.62873 z m 125.9044,-26.8615 c 33.55,-19.35629 61.1415,-35.32877 61.3145,-35.49438 0.173,-0.16562 0.01,-1.92211 -0.3613,-3.90331 -0.6196,-3.30253 -0.9603,-3.60218 -4.0966,-3.60218 -4.0005,0 -10.3693,-2.42082 -11.9831,-4.55486 -0.9506,-1.25702 -10.6338,4.00044 -62,33.6626 -33.4804,19.33376 -61.0346,35.29242 -61.2316,35.46369 -0.1969,0.17128 1.1741,0.95158 3.0467,1.73401 4.8754,2.03708 8.8114,7.08335 8.8114,11.29697 0,3.44228 0.01,3.44618 2.75,2.01984 1.5125,-0.78601 30.2,-17.26608 63.75,-36.62238 z m 80.1042,-50.70362 c 0.3438,-1.83237 0.3096,-6.27726 -0.076,-9.87753 -0.5655,-5.28019 -1.2844,-7.21043 -3.7182,-9.98234 -1.6595,-1.89001 -3.5424,-3.43638 -4.1844,-3.43638 -1.6617,0 -19.165,17.79391 -18.3273,18.6316 0.3818,0.38183 4.0102,0.96546 8.0631,1.29696 9.2795,0.75901 10.6386,1.83084 10.6386,8.39005 v 5.07372 l 3.4896,-3.38225 c 2.0044,-1.94275 3.7556,-4.80018 4.1146,-6.71383 z m -28.4945,-19.85486 c 5.1647,-5.25723 9.3153,-9.82219 9.2238,-10.14434 -0.092,-0.32216 -31.1417,-18.51679 -69,-40.43253 l -68.8335,-39.84679 -9.2251,9.74113 c -5.0739,5.35763 -9.1239,10.38276 -9,11.16697 0.2468,1.56317 133.2293,78.91876 135.8348,79.01482 0.8854,0.0326 5.8354,-4.24202 11,-9.49926 z"
       id="path1-8-2-6-3-1"
       sodipodi:nodetypes="csssssccccszzsssssssssssssccssssscsssscsscsscccccssssscsssssscsssssssscssscscssssc" />
    <path
       d="m 724.5458,699.73317 -131.72657,74.21484 60.72852,34.52539 c 39.28954,22.33767 72.16628,41.65886 73.45508,42.2461 2.0937,0.95395 9.12145,-2.84894 65.96875,-35.69531 34.9942,-20.21968 63.62695,-37.04394 63.62695,-37.38672 0,-0.34277 -29.28874,-17.48308 -65.08594,-38.08985 -35.7971,-20.60677 -66.96679,-39.81445 -66.96679,-39.81445 z"
       style="fill:#a9ccff;fill-opacity:1"
       id="path24-2" />
    <path
       d="m 899.22372,757.57958 c -1.6617,0 -19.1659,17.79512 -18.3282,18.63281 0.3818,0.38183 4.0116,0.96538 8.0645,1.29688 9.2795,0.75901 10.6387,1.82946 10.6387,8.38867 v 5.07422 l 3.4882,-3.38281 c 2.0044,-1.94275 3.7563,-4.79925 4.1153,-6.7129 0.3438,-1.83237 0.3094,-6.27668 -0.076,-9.87695 -0.5655,-5.28019 -1.285,-7.21051 -3.7188,-9.98242 -1.6595,-1.89001 -3.5416,-3.4375 -4.1836,-3.4375 z"
       style="fill:#54575a;fill-opacity:1"
       id="path6-2-7-8-7-0" />
    <path
       d="m 727.55572,864.25536 c 7.9213,-0.11205 16.1817,0.0978 18.793,0.71484 3.211,0.75877 3.25,0.83837 3.25,6.64844 v 5.88086 l -6.6055,2.04102 c -8.788,2.71434 -19.7949,2.65863 -28.1445,-0.14258 l -6.25,-2.09766 v -5.32422 c 0,-4.46167 0.3553,-5.51619 2.1972,-6.50195 1.2551,-0.67169 8.8384,-1.1067 16.7598,-1.21875 z"
       style="fill:#54575a;fill-opacity:1"
       id="path5-4-6-5-4-0" />
    <path
       d="m 750.09872,670.59716 -9.2247,9.74219 c -5.0739,5.35762 -9.1239,10.3818 -9,11.16601 0.2468,1.56317 133.2285,78.91957 135.834,79.01563 0.8854,0.0326 5.8354,-4.24276 11,-9.5 5.1647,-5.25723 9.3161,-9.82239 9.2246,-10.14454 -0.092,-0.32216 -31.1417,-18.5159 -69,-40.43164 z"
       style="fill:#0075c9;fill-opacity:1"
       id="path4-5-1-7-2-1" />
    <path
       d="m 871.97172,784.02489 c -0.9506,-1.25702 -10.6338,3.99995 -62,33.66211 -33.4804,19.33376 -61.0354,35.29358 -61.2324,35.46485 -0.1969,0.17128 1.1743,0.95194 3.0469,1.73437 4.8754,2.03708 8.8125,7.08326 8.8125,11.29688 0,3.44228 0.01,3.44587 2.75,2.01953 1.5125,-0.78601 30.2,-17.26675 63.75,-36.62305 33.55,-19.35629 61.1414,-35.32853 61.3144,-35.49414 0.173,-0.16562 0.01,-1.92114 -0.3613,-3.90234 -0.6196,-3.30253 -0.9614,-3.60352 -4.0977,-3.60352 -4.0005,0 -10.3686,-2.42065 -11.9824,-4.55469 z"
       style="fill:#0075c9;fill-opacity:1"
       id="path3-5-4-6-7-4" />
    <path
       d="m 580.83302,778.57958 -5.8672,0.0586 c -3.2271,0.0317 -7.6672,0.3755 -9.8672,0.76563 l -4,0.71094 v 5.46875 5.46875 l 67.9551,39.25586 67.9551,39.2539 1.1406,-4.49219 c 0.6273,-2.47023 1.9975,-5.45333 3.0449,-6.6289 1.0475,-1.17557 3.4304,-2.78277 5.2969,-3.57227 l 3.3946,-1.43554 -2.8946,-1.75 c -1.5915,-0.96297 -30.6275,-17.80613 -64.5254,-37.42774 z"
       style="fill:#0075c9;fill-opacity:1"
       id="path2-1-2-1-7-6" />
  </g>
</svg>
